<svg version="1.1" xmlns="http://www.w3.org/2000/svg" width="1536" height="1536" viewBox="226 401 650 650">

<path d="M0 0 C0.96394684 0.00270905 1.92789368 0.00541809 2.92105103 0.00820923 C24.92998435 0.10180806 45.73403263 2.45301088 66.6875 9.4375 C68.54006066 9.96401724 70.39401319 10.4856904 72.25 11 C75.95717066 12.11465604 79.27403509 13.5939562 82.69140625 15.40234375 C85.47440551 16.84558212 88.3405932 18.07267861 91.21875 19.3125 C97.60338421 22.22195357 103.6362988 25.49523685 109.5625 29.25 C110.60567383 29.90802612 110.60567383 29.90802612 111.66992188 30.5793457 C120.21157629 35.99917215 128.17766289 41.64946727 135.6875 48.4375 C136.58662109 49.19933594 136.58662109 49.19933594 137.50390625 49.9765625 C142.09550527 53.868398 146.40775486 58.02176227 150.6875 62.25 C151.27619873 62.82572754 151.86489746 63.40145508 152.47143555 63.99462891 C153.91668595 65.43667855 155.30725305 66.93311499 156.6875 68.4375 C156.6875 69.0975 156.6875 69.7575 156.6875 70.4375 C157.6775 70.7675 158.6675 71.0975 159.6875 71.4375 C161.31270942 73.44739202 162.79057182 75.43731277 164.25 77.5625 C164.68401123 78.18415039 165.11802246 78.80580078 165.56518555 79.44628906 C166.94869995 81.43703609 168.31878733 83.43655405 169.6875 85.4375 C170.13673828 86.08750977 170.58597656 86.73751953 171.04882812 87.40722656 C176.18185297 94.84525602 180.93266719 102.19235167 184.6875 110.4375 C185.15542969 111.39527344 185.62335938 112.35304688 186.10546875 113.33984375 C208.67115364 160.26950718 210.43268922 213.21862742 194.6875 262.4375 C193.05682703 266.96635147 190.95081725 271.19308844 188.6875 275.4375 C188.03627411 276.73623821 187.38941551 278.03717218 186.74609375 279.33984375 C185.06716169 282.73774917 183.36816609 286.12493423 181.66015625 289.50830078 C180.16148178 292.48082229 178.67484831 295.45929548 177.1875 298.4375 C176.35416667 300.10416667 175.52083333 301.77083333 174.6875 303.4375 C175.25339844 303.68371094 175.81929687 303.92992187 176.40234375 304.18359375 C179.07998258 305.65286224 181.01793612 307.41502435 183.25 309.5 C189.54407592 315.26803146 196.14530099 320.62482758 202.828125 325.93359375 C203.83359375 326.73925781 204.8390625 327.54492188 205.875 328.375 C207.25751953 329.47134766 207.25751953 329.47134766 208.66796875 330.58984375 C209.33441406 331.19957031 210.00085938 331.80929687 210.6875 332.4375 C210.6875 333.0975 210.6875 333.7575 210.6875 334.4375 C211.23921875 334.68242188 211.7909375 334.92734375 212.359375 335.1796875 C215.16389491 336.69488114 217.46853123 338.54834126 219.9375 340.5625 C220.82953125 341.28695313 221.7215625 342.01140625 222.640625 342.7578125 C223.31609375 343.31210937 223.9915625 343.86640625 224.6875 344.4375 C223.02677242 348.58428643 220.02789583 351.50495482 217 354.6875 C215.90279324 355.85597082 214.80643398 357.02523806 213.7109375 358.1953125 C213.18467773 358.75637695 212.65841797 359.31744141 212.11621094 359.89550781 C210.40344521 361.74407725 208.75771584 363.64306333 207.125 365.5625 C203.7328952 369.50171848 200.04940727 373.13121153 196.32983398 376.75830078 C193.66732426 379.33681107 193.66732426 379.33681107 191.6875 382.4375 C191.0275 382.4375 190.3675 382.4375 189.6875 382.4375 C189.3575 383.4275 189.0275 384.4175 188.6875 385.4375 C187.759375 384.633125 186.83125 383.82875 185.875 383 C182.7418686 380.30360813 179.5375383 377.71047374 176.3125 375.125 C172.73812814 372.21777929 169.40138996 369.23778485 166.1875 365.9375 C162.20426802 361.84776449 157.93707624 358.28859072 153.484375 354.72265625 C149.07541885 351.12036666 144.88158327 347.28586708 140.6875 343.4375 C136.97002733 345.06610707 134.09346536 347.40631966 130.9375 349.9375 C114.61769461 362.71854827 95.96664137 372.88331105 76.6875 380.4375 C75.9241333 380.74324951 75.1607666 381.04899902 74.37426758 381.36401367 C67.12371896 384.1531007 59.73577169 386.00676244 52.16235352 387.67504883 C50.12213736 388.12563222 48.08549968 388.59032622 46.04882812 389.05664062 C44.71893872 389.35500908 43.38886624 389.65256293 42.05859375 389.94921875 C40.2940686 390.34306763 40.2940686 390.34306763 38.49389648 390.74487305 C30.63250553 392.17536283 22.85266574 392.58963563 14.875 392.5703125 C13.98063232 392.57126923 13.08626465 392.57222595 12.16479492 392.57321167 C10.28922454 392.57388684 8.41365172 392.5720793 6.53808594 392.56787109 C3.69460721 392.56251339 0.85128641 392.56783885 -1.9921875 392.57421875 C-3.82812534 392.57355785 -5.66406309 392.57227644 -7.5 392.5703125 C-8.33571533 392.57233673 -9.17143066 392.57436096 -10.0324707 392.57644653 C-17.8050357 392.54611826 -25.53934519 392.13248046 -33.0625 390.0625 C-37.45974691 388.89553832 -41.85260342 387.89885581 -46.3125 387 C-58.39253956 384.43596535 -69.80060568 379.82020088 -81.3125 375.4375 C-81.3125 374.7775 -81.3125 374.1175 -81.3125 373.4375 C-81.89676758 373.29747559 -82.48103516 373.15745117 -83.08300781 373.01318359 C-90.37648986 371.12991261 -96.28712595 367.87033266 -102.5625 363.8125 C-103.39515381 363.27906982 -104.22780762 362.74563965 -105.08569336 362.19604492 C-117.59475338 354.10593973 -128.78940648 344.99342689 -139.3125 334.4375 C-140.06789063 333.71691406 -140.82328125 332.99632812 -141.6015625 332.25390625 C-169.32066645 305.50821565 -186.11840802 269.99787442 -194.5625 232.875 C-194.72572754 232.16182617 -194.88895508 231.44865234 -195.05712891 230.71386719 C-197.45370725 219.7748525 -197.55431688 208.89415891 -197.5625 197.75 C-197.56317474 196.92591644 -197.56384949 196.10183289 -197.56454468 195.2527771 C-197.50466624 149.1570146 -181.42304571 103.92207619 -150.3125 69.4375 C-149.14483748 68.06334558 -147.97804439 66.68845145 -146.8125 65.3125 C-139.12850417 56.62226662 -130.77951977 48.19965698 -121.3125 41.4375 C-120.6525 41.4375 -119.9925 41.4375 -119.3125 41.4375 C-119.3125 40.7775 -119.3125 40.1175 -119.3125 39.4375 C-117.3418727 37.98108326 -115.38774244 36.66829904 -113.3125 35.375 C-112.68891602 34.98086914 -112.06533203 34.58673828 -111.42285156 34.18066406 C-88.15145239 19.63171297 -64.16759187 9.28982086 -37.3125 3.4375 C-36.2191333 3.18379639 -35.1257666 2.93009277 -33.99926758 2.66870117 C-22.63529238 0.24821548 -11.59220089 -0.0763128 0 0 Z " fill="#D5DDC7" transform="translate(429.3125,437.5625)"/>
<path d="M0 0 C0.96394684 0.00270905 1.92789368 0.00541809 2.92105103 0.00820923 C24.92998435 0.10180806 45.73403263 2.45301088 66.6875 9.4375 C68.54006066 9.96401724 70.39401319 10.4856904 72.25 11 C75.95717066 12.11465604 79.27403509 13.5939562 82.69140625 15.40234375 C85.47440551 16.84558212 88.3405932 18.07267861 91.21875 19.3125 C97.60338421 22.22195357 103.6362988 25.49523685 109.5625 29.25 C110.60567383 29.90802612 110.60567383 29.90802612 111.66992188 30.5793457 C120.21157629 35.99917215 128.17766289 41.64946727 135.6875 48.4375 C136.58662109 49.19933594 136.58662109 49.19933594 137.50390625 49.9765625 C142.09550527 53.868398 146.40775486 58.02176227 150.6875 62.25 C151.27619873 62.82572754 151.86489746 63.40145508 152.47143555 63.99462891 C153.91668595 65.43667855 155.30725305 66.93311499 156.6875 68.4375 C156.6875 69.0975 156.6875 69.7575 156.6875 70.4375 C157.6775 70.7675 158.6675 71.0975 159.6875 71.4375 C161.31270942 73.44739202 162.79057182 75.43731277 164.25 77.5625 C164.68401123 78.18415039 165.11802246 78.80580078 165.56518555 79.44628906 C166.94869995 81.43703609 168.31878733 83.43655405 169.6875 85.4375 C170.13673828 86.08750977 170.58597656 86.73751953 171.04882812 87.40722656 C176.18185297 94.84525602 180.93266719 102.19235167 184.6875 110.4375 C185.15542969 111.39527344 185.62335938 112.35304688 186.10546875 113.33984375 C208.67115364 160.26950718 210.43268922 213.21862742 194.6875 262.4375 C193.05682703 266.96635147 190.95081725 271.19308844 188.6875 275.4375 C188.03627411 276.73623821 187.38941551 278.03717218 186.74609375 279.33984375 C185.06716169 282.73774917 183.36816609 286.12493423 181.66015625 289.50830078 C180.16148178 292.48082229 178.67484831 295.45929548 177.1875 298.4375 C176.35416667 300.10416667 175.52083333 301.77083333 174.6875 303.4375 C175.25339844 303.68371094 175.81929687 303.92992187 176.40234375 304.18359375 C179.07998258 305.65286224 181.01793612 307.41502435 183.25 309.5 C189.54407592 315.26803146 196.14530099 320.62482758 202.828125 325.93359375 C203.83359375 326.73925781 204.8390625 327.54492188 205.875 328.375 C207.25751953 329.47134766 207.25751953 329.47134766 208.66796875 330.58984375 C209.33441406 331.19957031 210.00085938 331.80929687 210.6875 332.4375 C210.6875 333.0975 210.6875 333.7575 210.6875 334.4375 C211.23921875 334.68242188 211.7909375 334.92734375 212.359375 335.1796875 C215.16389491 336.69488114 217.46853123 338.54834126 219.9375 340.5625 C220.82953125 341.28695313 221.7215625 342.01140625 222.640625 342.7578125 C223.31609375 343.31210937 223.9915625 343.86640625 224.6875 344.4375 C223.02677242 348.58428643 220.02789583 351.50495482 217 354.6875 C215.90279324 355.85597082 214.80643398 357.02523806 213.7109375 358.1953125 C213.18467773 358.75637695 212.65841797 359.31744141 212.11621094 359.89550781 C210.40344521 361.74407725 208.75771584 363.64306333 207.125 365.5625 C203.7328952 369.50171848 200.04940727 373.13121153 196.32983398 376.75830078 C193.66732426 379.33681107 193.66732426 379.33681107 191.6875 382.4375 C191.0275 382.4375 190.3675 382.4375 189.6875 382.4375 C189.3575 383.4275 189.0275 384.4175 188.6875 385.4375 C187.759375 384.633125 186.83125 383.82875 185.875 383 C182.7418686 380.30360813 179.5375383 377.71047374 176.3125 375.125 C172.73812814 372.21777929 169.40138996 369.23778485 166.1875 365.9375 C162.20426802 361.84776449 157.93707624 358.28859072 153.484375 354.72265625 C149.07541885 351.12036666 144.88158327 347.28586708 140.6875 343.4375 C136.97002733 345.06610707 134.09346536 347.40631966 130.9375 349.9375 C114.61769461 362.71854827 95.96664137 372.88331105 76.6875 380.4375 C75.9241333 380.74324951 75.1607666 381.04899902 74.37426758 381.36401367 C67.12371896 384.1531007 59.73577169 386.00676244 52.16235352 387.67504883 C50.12213736 388.12563222 48.08549968 388.59032622 46.04882812 389.05664062 C44.71893872 389.35500908 43.38886624 389.65256293 42.05859375 389.94921875 C40.2940686 390.34306763 40.2940686 390.34306763 38.49389648 390.74487305 C30.63250553 392.17536283 22.85266574 392.58963563 14.875 392.5703125 C13.98063232 392.57126923 13.08626465 392.57222595 12.16479492 392.57321167 C10.28922454 392.57388684 8.41365172 392.5720793 6.53808594 392.56787109 C3.69460721 392.56251339 0.85128641 392.56783885 -1.9921875 392.57421875 C-3.82812534 392.57355785 -5.66406309 392.57227644 -7.5 392.5703125 C-8.33571533 392.57233673 -9.17143066 392.57436096 -10.0324707 392.57644653 C-17.8050357 392.54611826 -25.53934519 392.13248046 -33.0625 390.0625 C-37.45974691 388.89553832 -41.85260342 387.89885581 -46.3125 387 C-58.39253956 384.43596535 -69.80060568 379.82020088 -81.3125 375.4375 C-81.3125 374.7775 -81.3125 374.1175 -81.3125 373.4375 C-81.89676758 373.29747559 -82.48103516 373.15745117 -83.08300781 373.01318359 C-90.37648986 371.12991261 -96.28712595 367.87033266 -102.5625 363.8125 C-103.39515381 363.27906982 -104.22780762 362.74563965 -105.08569336 362.19604492 C-117.59475338 354.10593973 -128.78940648 344.99342689 -139.3125 334.4375 C-140.06789063 333.71691406 -140.82328125 332.99632812 -141.6015625 332.25390625 C-169.32066645 305.50821565 -186.11840802 269.99787442 -194.5625 232.875 C-194.72572754 232.16182617 -194.88895508 231.44865234 -195.05712891 230.71386719 C-197.45370725 219.7748525 -197.55431688 208.89415891 -197.5625 197.75 C-197.56317474 196.92591644 -197.56384949 196.10183289 -197.56454468 195.2527771 C-197.50466624 149.1570146 -181.42304571 103.92207619 -150.3125 69.4375 C-149.14483748 68.06334558 -147.97804439 66.68845145 -146.8125 65.3125 C-139.12850417 56.62226662 -130.77951977 48.19965698 -121.3125 41.4375 C-120.6525 41.4375 -119.9925 41.4375 -119.3125 41.4375 C-119.3125 40.7775 -119.3125 40.1175 -119.3125 39.4375 C-117.3418727 37.98108326 -115.38774244 36.66829904 -113.3125 35.375 C-112.68891602 34.98086914 -112.06533203 34.58673828 -111.42285156 34.18066406 C-88.15145239 19.63171297 -64.16759187 9.28982086 -37.3125 3.4375 C-36.2191333 3.18379639 -35.1257666 2.93009277 -33.99926758 2.66870117 C-22.63529238 0.24821548 -11.59220089 -0.0763128 0 0 Z M-99.26953125 67.8046875 C-102.06168793 70.03627735 -104.96696053 72.10392903 -107.87890625 74.17578125 C-108.35199219 74.59214844 -108.82507813 75.00851562 -109.3125 75.4375 C-109.3125 76.0975 -109.3125 76.7575 -109.3125 77.4375 C-109.87710938 77.67855469 -110.44171875 77.91960937 -111.0234375 78.16796875 C-118.26035803 82.18161922 -123.84067081 89.84490004 -128.875 96.3125 C-129.30441895 96.85946533 -129.73383789 97.40643066 -130.17626953 97.9699707 C-132.25415981 100.70801085 -133.83776846 102.98944984 -134.3125 106.4375 C-134.9725 106.4375 -135.6325 106.4375 -136.3125 106.4375 C-138.27099811 109.84250305 -140.22266726 113.25096585 -142.16015625 116.66796875 C-143.39088507 118.83644711 -144.64131235 120.98023845 -145.93359375 123.11328125 C-164.15032887 154.0669206 -168.52992592 197.62733254 -159.64599609 232.01757812 C-158.03787123 237.88060078 -156.21954896 243.66574706 -154.3125 249.4375 C-153.9721875 250.49710938 -153.631875 251.55671875 -153.28125 252.6484375 C-146.90173052 271.40202492 -135.94333215 288.28453181 -122.72021484 302.87841797 C-121.40740936 304.33238533 -120.11870526 305.80801397 -118.83203125 307.28515625 C-106.36477927 321.51198596 -90.50892135 333.33458989 -73.39453125 341.44140625 C-71.75037189 342.22801157 -70.12679739 343.05763735 -68.51171875 343.90234375 C-62.97916554 346.77758424 -57.67178748 349.16125996 -51.65234375 350.796875 C-49.45271012 351.39911192 -47.33552901 352.11161729 -45.1875 352.875 C-40.88772537 354.32876995 -36.52459813 355.45834796 -32.125 356.5625 C-31.10865479 356.81858032 -31.10865479 356.81858032 -30.07177734 357.07983398 C-23.43291704 358.71633341 -17.17169479 359.59864146 -10.3359375 359.640625 C-9.57690628 359.64759399 -8.81787506 359.65456299 -8.0358429 359.66174316 C-5.58633878 359.67911498 -3.13706323 359.68546754 -0.6875 359.6875 C0.14663422 359.68850708 0.98076843 359.68951416 1.84017944 359.69055176 C14.35931535 359.68030561 26.42662015 359.16829259 38.6875 356.4375 C39.37956543 356.29296387 40.07163086 356.14842773 40.78466797 355.99951172 C64.28244526 351.03379843 88.01604315 340.62056828 106.6875 325.4375 C107.56148437 324.74011719 108.43546875 324.04273438 109.3359375 323.32421875 C114.76505566 318.94514494 119.86320717 314.46953749 124.6875 309.4375 C125.48542969 308.65503906 126.28335937 307.87257813 127.10546875 307.06640625 C129.60756644 304.5188847 131.87515527 301.89619912 134.125 299.125 C134.84558594 298.24199219 135.56617188 297.35898437 136.30859375 296.44921875 C152.38263884 276.0993193 164.47660775 252.24619442 168.6875 226.4375 C168.88859375 225.3340625 169.0896875 224.230625 169.296875 223.09375 C172.12424281 204.90689762 172.80315709 184.19183931 167.6875 166.4375 C167.35773252 164.50286414 167.04693068 162.56494708 166.75 160.625 C161.55139482 128.43363717 140.44021191 96.11507031 115.6875 75.4375 C114.70523438 74.56544922 114.70523438 74.56544922 113.703125 73.67578125 C113.07921875 73.12277344 112.4553125 72.56976563 111.8125 72 C111.25820313 71.50628906 110.70390625 71.01257813 110.1328125 70.50390625 C108.71863379 69.23959393 108.71863379 69.23959393 106.6875 69.4375 C106.6875 68.7775 106.6875 68.1175 106.6875 67.4375 C104.44894413 65.75782785 102.21822007 64.20893657 99.875 62.6875 C99.19228027 62.23866455 98.50956055 61.7898291 97.80615234 61.32739258 C93.0365985 58.22612069 88.1862513 55.3639316 83.140625 52.73046875 C81.60671486 51.92199063 80.09151769 51.0756536 78.609375 50.17578125 C71.69442817 45.99250235 64.13669374 43.63553765 56.51416016 41.07666016 C55.06415577 40.56929428 53.63937049 39.98996533 52.2265625 39.38671875 C45.36461161 36.8214048 37.86337107 35.81191674 30.6875 34.4375 C29.48867188 34.20546875 28.28984375 33.9734375 27.0546875 33.734375 C-17.30455438 26.52985776 -64.41743543 39.68761207 -99.26953125 67.8046875 Z " fill="#708553" transform="translate(429.3125,437.5625)"/>
<path d="M0 0 C3.55355909 2.1746684 6.47148768 5.02530862 9.48828125 7.87890625 C13.57141763 11.67892839 18.00357497 15.72834998 23.0234375 18.23828125 C23.0234375 18.89828125 23.0234375 19.55828125 23.0234375 20.23828125 C23.60770508 20.5115625 24.19197266 20.78484375 24.79394531 21.06640625 C28.46493562 22.99596751 31.54673767 25.65204169 34.7734375 28.23828125 C35.47082031 28.78484375 36.16820312 29.33140625 36.88671875 29.89453125 C37.54542969 30.42046875 38.20414063 30.94640625 38.8828125 31.48828125 C39.48577148 31.9678125 40.08873047 32.44734375 40.70996094 32.94140625 C41.1434082 33.369375 41.57685547 33.79734375 42.0234375 34.23828125 C42.0234375 34.89828125 42.0234375 35.55828125 42.0234375 36.23828125 C42.73113281 36.46128906 43.43882812 36.68429687 44.16796875 36.9140625 C47.62974231 38.51945407 50.01965735 40.79409153 52.7109375 43.42578125 C57.19158825 47.68452118 61.78058942 51.31647104 66.92578125 54.765625 C69.60667946 56.64774534 71.73835332 58.89606996 74.0234375 61.23828125 C76.27297859 63.10375435 78.56715179 64.90703142 80.86328125 66.71484375 C83.36434543 68.69550788 85.82402385 70.72224444 88.27734375 72.76171875 C89.40317871 73.69673218 89.40317871 73.69673218 90.55175781 74.65063477 C92.05192296 75.89858104 93.5500392 77.14899526 95.04589844 78.40209961 C98.58261075 81.33864502 102.02679578 83.94186833 106.0234375 86.23828125 C107.14568876 87.3935399 108.26652725 88.5502644 109.375 89.71875 C111.61046561 91.77940432 114.04728301 93.47576378 116.5234375 95.23828125 C120.39409717 98.00451269 123.74086176 100.78293837 127.0234375 104.23828125 C132.19663809 109.03676309 137.57229512 113.54290123 143.10546875 117.91796875 C147.38212411 121.31868265 151.60918619 124.77991384 155.83789062 128.23999023 C159.15951233 130.94839549 162.49777938 133.61992932 165.91796875 136.203125 C173.08398909 141.62951012 179.91307551 147.01755728 184.0234375 155.23828125 C184.83823382 166.29623136 184.50344256 175.3276338 179.0234375 185.23828125 C178.600625 186.07359375 178.1778125 186.90890625 177.7421875 187.76953125 C173.67112997 195.24891601 167.95094916 201.21919287 162.0234375 207.23828125 C161.29125 207.99496094 160.5590625 208.75164062 159.8046875 209.53125 C153.69078436 215.42842896 146.71773402 218.80000865 139.0234375 222.23828125 C137.81494141 222.81642578 137.81494141 222.81642578 136.58203125 223.40625 C133.16706923 224.51676437 129.8912238 224.64527832 126.3359375 224.67578125 C125.35077148 224.72508789 125.35077148 224.72508789 124.34570312 224.77539062 C115.29259809 224.8716072 108.82765363 220.29728074 102.515625 214.18359375 C100.62013038 212.26505523 98.75723573 210.31730348 96.8984375 208.36328125 C95.0257014 206.42363874 93.14605101 204.4907784 91.265625 202.55859375 C90.37262695 201.63916992 89.47962891 200.71974609 88.55957031 199.77246094 C85.75856734 196.97361507 82.84077109 194.37866105 79.82861328 191.81201172 C76.91085595 189.26834608 74.22712471 186.50543726 71.5234375 183.73828125 C67.43272023 179.59574548 63.29291553 175.61720798 58.8515625 171.84765625 C56.09458319 169.4205719 53.5588858 166.78557011 50.98828125 164.1640625 C49.07350935 162.28735764 47.08880103 160.57125793 45.0234375 158.86328125 C44.0334375 157.99703125 43.0434375 157.13078125 42.0234375 156.23828125 C42.0234375 155.57828125 42.0234375 154.91828125 42.0234375 154.23828125 C41.43820312 153.98175781 40.85296875 153.72523438 40.25 153.4609375 C37.83109142 152.13265963 36.29144878 150.67303324 34.3984375 148.67578125 C31.97821791 146.09812736 31.97821791 146.09812736 29.0234375 144.23828125 C29.0234375 143.57828125 29.0234375 142.91828125 29.0234375 142.23828125 C28.48203125 142.02558594 27.940625 141.81289063 27.3828125 141.59375 C24.17020156 139.74809438 21.81791713 137.19865561 19.2734375 134.55078125 C15.28065203 130.47072178 11.23249857 126.58153158 6.8828125 122.87890625 C4.12572832 120.44618492 1.58665971 117.81023558 -0.9921875 115.19140625 C-2.8443572 113.36840458 -4.7483143 111.67224459 -6.7265625 109.98828125 C-10.32176169 106.90263785 -13.64967626 103.60608032 -16.9765625 100.23828125 C-21.47692343 95.68818096 -26.08729949 91.37220926 -30.9765625 87.23828125 C-42.19765142 77.56926818 -42.19765142 77.56926818 -45.7890625 72.86328125 C-47.73714614 70.52558088 -49.55752282 68.93513039 -51.9140625 67.05078125 C-56.89301889 62.7698094 -60.14493881 57.61230203 -61.3828125 51.1015625 C-61.67315701 44.94383938 -60.06806946 39.6136654 -56.01953125 35.015625 C-54.47304636 33.47967833 -52.90592466 31.96427056 -51.3203125 30.46875 C-46.96602338 26.32491818 -43.16267045 21.69039093 -39.3515625 17.05078125 C-37.01260984 14.28096889 -34.56951262 11.77093021 -31.9765625 9.23828125 C-31.36683594 8.5834375 -30.75710938 7.92859375 -30.12890625 7.25390625 C-21.88855434 -1.44688922 -11.52312082 -4.96199693 0 0 Z " fill="#728655" transform="translate(685.9765625,790.76171875)"/>
<path d="M0 0 C1.98080798 0.39335194 3.97239985 0.73116926 5.96386719 1.06640625 C21.04980416 3.72304924 34.6100865 9.21311222 48.06542969 16.41015625 C48.98453125 16.88066406 49.90363281 17.35117187 50.85058594 17.8359375 C56.52310389 20.80168695 61.90505878 24.15161646 67.25292969 27.66015625 C67.92573975 28.09690674 68.5985498 28.53365723 69.29174805 28.98364258 C70.92074704 30.07126449 72.49871253 31.2345898 74.06542969 32.41015625 C74.06542969 33.07015625 74.06542969 33.73015625 74.06542969 34.41015625 C74.90267578 34.78720703 74.90267578 34.78720703 75.75683594 35.171875 C82.22934251 38.64359172 88.09252179 44.05471697 93.06542969 49.41015625 C94.02835938 50.41755859 94.02835938 50.41755859 95.01074219 51.4453125 C112.38710794 70.06284723 124.17983436 92.3515565 132.06542969 116.41015625 C132.42765625 117.40144531 132.78988281 118.39273438 133.16308594 119.4140625 C134.23780972 122.98251766 134.7139801 126.53310559 135.12792969 130.22265625 C135.27551274 134.68046137 135.27551274 134.68046137 137.06542969 138.41015625 C140.55343722 162.20335047 138.50111646 187.54705484 131.06542969 210.41015625 C130.81728516 211.17875977 130.56914063 211.94736328 130.31347656 212.73925781 C124.9227371 228.99431261 117.23538725 245.27447117 106.06542969 258.41015625 C105.34484375 259.30734375 104.62425781 260.20453125 103.88183594 261.12890625 C103.13804687 262.04671875 102.39425781 262.96453125 101.62792969 263.91015625 C100.88671875 264.82796875 100.14550781 265.74578125 99.38183594 266.69140625 C97.0618078 269.41440723 94.6198476 271.90730267 92.06542969 274.41015625 C91.27523438 275.22355469 90.48503906 276.03695313 89.67089844 276.875 C85.43204466 281.20972446 81.25550263 285.33838884 76.28710938 288.828125 C74.74625555 289.92534838 73.22395596 291.04891688 71.71728516 292.19262695 C64.85439118 297.36076416 57.76703441 301.55784909 50.12792969 305.47265625 C49.54138611 305.77419617 48.95484253 306.07573608 48.3505249 306.38641357 C31.1452819 315.19002954 14.17540445 320.57986841 -4.93457031 323.41015625 C-5.5890918 323.51255615 -6.24361328 323.61495605 -6.91796875 323.72045898 C-15.15054877 324.8319172 -23.51655599 324.69669376 -31.80957031 324.72265625 C-32.6361615 324.72560699 -33.46275269 324.72855774 -34.31439209 324.7315979 C-46.66106742 324.74163877 -58.03967205 323.94405498 -69.93457031 320.41015625 C-71.01867187 320.136875 -72.10277344 319.86359375 -73.21972656 319.58203125 C-85.16119144 316.56050312 -97.45819996 311.88489661 -107.93457031 305.41015625 C-109.57840714 304.55215361 -111.22434889 303.69817501 -112.87207031 302.84765625 C-119.9998979 298.98073764 -126.44702424 294.2496005 -132.93457031 289.41015625 C-134.27841797 288.40855469 -134.27841797 288.40855469 -135.64941406 287.38671875 C-153.10366628 274.08547496 -166.2465971 256.1264022 -176.92163086 237.17944336 C-177.75970498 235.71559107 -178.64584182 234.27937267 -179.54394531 232.8515625 C-181.28219828 229.79985434 -182.5346071 226.63286791 -183.74707031 223.34765625 C-184.00061279 222.66372803 -184.25415527 221.9797998 -184.51538086 221.27514648 C-186.59256397 215.55954058 -188.46471176 209.78639765 -190.24707031 203.97265625 C-190.50141846 203.15724365 -190.7557666 202.34183105 -191.01782227 201.50170898 C-192.39821017 196.8842903 -193.25211278 192.49614413 -193.67480469 187.69848633 C-193.95151474 185.26088923 -194.44224395 182.93642829 -194.97753906 180.54296875 C-196.10466491 175.10130999 -196.2789331 169.83020422 -196.24707031 164.28515625 C-196.24215576 163.25326172 -196.23724121 162.22136719 -196.23217773 161.15820312 C-195.97784776 143.931586 -193.71347565 127.62950085 -187.93457031 111.41015625 C-187.60070312 110.24355469 -187.26683594 109.07695313 -186.92285156 107.875 C-183.12375042 94.89591469 -176.42292404 82.64268685 -168.93457031 71.41015625 C-168.27457031 71.41015625 -167.61457031 71.41015625 -166.93457031 71.41015625 C-166.66773438 70.67152344 -166.40089844 69.93289063 -166.12597656 69.171875 C-162.53570413 60.84950578 -155.02629963 53.97048013 -148.93457031 47.41015625 C-148.4021875 46.83523438 -147.86980469 46.2603125 -147.32128906 45.66796875 C-146.23788725 44.5366288 -145.09363148 43.46384822 -143.93457031 42.41015625 C-143.27457031 42.41015625 -142.61457031 42.41015625 -141.93457031 42.41015625 C-141.60457031 41.42015625 -141.27457031 40.43015625 -140.93457031 39.41015625 C-104.80693967 4.87777164 -48.3811236 -9.77752339 0 0 Z M-69.64550781 13.71484375 C-73.98156663 15.03194011 -78.46715147 15.68823495 -82.93457031 16.41015625 C-82.93457031 17.07015625 -82.93457031 17.73015625 -82.93457031 18.41015625 C-83.6396875 18.52230469 -84.34480469 18.63445312 -85.07128906 18.75 C-88.20846543 19.47330533 -90.83584938 20.60473316 -93.74707031 21.97265625 C-94.72289062 22.42769531 -95.69871094 22.88273437 -96.70410156 23.3515625 C-97.44015625 23.70089844 -98.17621094 24.05023438 -98.93457031 24.41015625 C-98.93457031 25.07015625 -98.93457031 25.73015625 -98.93457031 26.41015625 C-100.01158203 26.32314453 -100.01158203 26.32314453 -101.11035156 26.234375 C-104.50425345 26.44561371 -106.2493356 27.4364324 -109.12207031 29.22265625 C-109.981875 29.74472656 -110.84167969 30.26679688 -111.72753906 30.8046875 C-114.16820866 32.38518305 -114.16820866 32.38518305 -115.93457031 35.41015625 C-117.02705078 35.82587891 -117.02705078 35.82587891 -118.14160156 36.25 C-121.93139676 37.82422262 -124.57065828 40.27372896 -127.62207031 42.97265625 C-133.73026125 48.30800172 -133.73026125 48.30800172 -135.93457031 49.41015625 C-135.93457031 50.07015625 -135.93457031 50.73015625 -135.93457031 51.41015625 C-136.59457031 51.41015625 -137.25457031 51.41015625 -137.93457031 51.41015625 C-137.93457031 52.07015625 -137.93457031 52.73015625 -137.93457031 53.41015625 C-138.59457031 53.41015625 -139.25457031 53.41015625 -139.93457031 53.41015625 C-139.93457031 54.07015625 -139.93457031 54.73015625 -139.93457031 55.41015625 C-140.92457031 55.74015625 -141.91457031 56.07015625 -142.93457031 56.41015625 C-145.9673423 59.46523651 -145.9673423 59.46523651 -146.93457031 63.41015625 C-147.92457031 63.74015625 -148.91457031 64.07015625 -149.93457031 64.41015625 C-151.89344363 66.71754665 -151.89344363 66.71754665 -153.80957031 69.53515625 C-154.86917969 71.03949219 -154.86917969 71.03949219 -155.95019531 72.57421875 C-156.60503906 73.51007813 -157.25988281 74.4459375 -157.93457031 75.41015625 C-158.80880157 76.57739908 -159.68366054 77.74417247 -160.55957031 78.91015625 C-163.80968134 83.47344345 -166.33646815 88.45797257 -168.93457031 93.41015625 C-169.51078125 94.46589844 -169.51078125 94.46589844 -170.09863281 95.54296875 C-172.40540382 99.89237669 -173.88731683 104.23625253 -175.21582031 108.97265625 C-175.86787695 111.18397875 -176.63566703 113.2738761 -177.49707031 115.41015625 C-178.88523573 119.04240255 -179.71762503 122.62320235 -180.39550781 126.44921875 C-180.78338374 128.57972565 -181.23386065 130.699179 -181.72363281 132.80859375 C-187.25068636 157.76719762 -186.99175738 194.30435057 -173.93457031 217.41015625 C-173.27457031 217.41015625 -172.61457031 217.41015625 -171.93457031 217.41015625 C-171.76828125 218.71726562 -171.76828125 218.71726562 -171.59863281 220.05078125 C-169.80155556 229.14187795 -163.93022078 238.42553251 -157.93457031 245.41015625 C-157.27457031 245.41015625 -156.61457031 245.41015625 -155.93457031 245.41015625 C-155.86367188 245.94253906 -155.79277344 246.47492188 -155.71972656 247.0234375 C-154.61519748 250.38098611 -152.54111234 252.8645834 -150.37207031 255.59765625 C-149.696521 256.45931396 -149.696521 256.45931396 -149.00732422 257.33837891 C-126.56781615 285.72685518 -94.53120845 304.87111445 -58.93457031 311.41015625 C-57.28328125 311.71759766 -57.28328125 311.71759766 -55.59863281 312.03125 C-13.02722102 318.61211856 28.29844959 309.1955541 63.421875 284.54101562 C65.08710869 283.39523986 66.78746118 282.31943035 68.49511719 281.23828125 C69.34332031 280.635 70.19152344 280.03171875 71.06542969 279.41015625 C71.06542969 278.75015625 71.06542969 278.09015625 71.06542969 277.41015625 C71.65710938 277.13429688 72.24878906 276.8584375 72.85839844 276.57421875 C78.67955419 273.50394545 83.0551083 268.49351637 87.25292969 263.52734375 C88.46894822 262.10690831 89.7201105 260.71587781 91.00292969 259.35546875 C95.84802891 254.18862465 99.53930663 248.73240904 103.13183594 242.6328125 C105.06542969 239.41015625 105.06542969 239.41015625 106.84277344 236.90625 C112.81835091 228.46456118 115.81686717 218.85350798 119.10986328 209.140625 C119.73321133 207.35944857 120.39108422 205.58987402 121.08740234 203.8359375 C126.0716717 191.17537291 127.57992597 178.37557631 127.45654297 164.87304688 C127.44037438 162.77798993 127.45655821 160.68484537 127.47558594 158.58984375 C127.48874789 149.54460514 126.21271759 141.20650836 124.06542969 132.41015625 C123.35773987 128.75035902 122.70252841 125.08284299 122.06542969 121.41015625 C121.40542969 121.41015625 120.74542969 121.41015625 120.06542969 121.41015625 C120.00484375 120.71148438 119.94425781 120.0128125 119.88183594 119.29296875 C119.75615234 117.92785156 119.75615234 117.92785156 119.62792969 116.53515625 C119.54671875 115.63023437 119.46550781 114.7253125 119.38183594 113.79296875 C119.19553684 111.39904764 119.19553684 111.39904764 118.06542969 109.41015625 C117.40542969 109.41015625 116.74542969 109.41015625 116.06542969 109.41015625 C115.94425781 108.7346875 115.82308594 108.05921875 115.69824219 107.36328125 C115.53066406 106.47125 115.36308594 105.57921875 115.19042969 104.66015625 C114.94679688 103.33757812 114.94679688 103.33757812 114.69824219 101.98828125 C114.09746704 99.54067881 113.28545852 97.60415768 112.06542969 95.41015625 C111.40542969 95.41015625 110.74542969 95.41015625 110.06542969 95.41015625 C109.81792969 94.77078125 109.57042969 94.13140625 109.31542969 93.47265625 C107.65731397 89.41027274 105.86187128 85.41290719 104.06542969 81.41015625 C103.40542969 81.41015625 102.74542969 81.41015625 102.06542969 81.41015625 C101.06211721 79.42128903 100.07479116 77.43029522 99.13574219 75.41015625 C97.26202239 71.44592262 95.5629489 68.20817162 92.06542969 65.41015625 C91.40542969 65.41015625 90.74542969 65.41015625 90.06542969 65.41015625 C89.97261719 64.57484375 89.97261719 64.57484375 89.87792969 63.72265625 C88.71779259 60.42072759 86.60983174 58.78107634 84.06542969 56.41015625 C83.31132813 55.62769531 82.55722656 54.84523438 81.78027344 54.0390625 C78.05173619 50.42855089 73.90979908 47.53074868 69.70996094 44.49609375 C67.06542969 42.41015625 67.06542969 42.41015625 65.06542969 39.41015625 C64.07542969 39.08015625 63.08542969 38.75015625 62.06542969 38.41015625 C60.73209635 37.07682292 59.39876302 35.74348958 58.06542969 34.41015625 C54.18214233 31.49769073 50.52277661 29.77115849 46.00292969 28.1875 C43.07890517 27.01435307 40.65439256 25.19006823 38.06542969 23.41015625 C32.85057301 20.33443147 27.62320663 18.6046593 21.76855469 17.125 C19.4038968 16.49966417 17.17032959 15.75449438 14.87792969 14.91015625 C10.66360958 13.47241888 6.36809098 12.56645685 2.00292969 11.72265625 C1.01160034 11.52542969 1.01160034 11.52542969 0.00024414 11.32421875 C-4.70626757 10.45629343 -9.14966939 10.29813516 -13.93457031 10.41015625 C-13.93457031 9.75015625 -13.93457031 9.09015625 -13.93457031 8.41015625 C-42.1629671 7.8231104 -42.1629671 7.8231104 -69.64550781 13.71484375 Z " fill="#F9FBF7" transform="translate(461.9345703125,472.58984375)"/>
<path d="M0 0 C1.04522602 3.3060112 0.93853074 5.88179977 0.5625 9.3125 C-1.5433599 34.81047931 1.59897159 59.51967527 9 84 C9.66 84 10.32 84 11 84 C11.37511719 84.97839844 11.75023437 85.95679688 12.13671875 86.96484375 C14.75015542 93.68890913 17.36655949 100.17120671 21.1171875 106.36328125 C22 108 22 108 22 110 C22.66 110 23.32 110 24 110 C27 115.75 27 115.75 27 118 C27.66 118 28.32 118 29 118 C29.33 119.32 29.66 120.64 30 122 C30.66 122 31.32 122 32 122 C34.125 123.8125 34.125 123.8125 36 126 C36 126.99 36 127.98 36 129 C36.66 129 37.32 129 38 129 C38 129.99 38 130.98 38 132 C38.66 132 39.32 132 40 132 C42.125 133.875 42.125 133.875 44 136 C44 136.66 44 137.32 44 138 C44.66 138 45.32 138 46 138 C46 138.66 46 139.32 46 140 C46.721875 140.226875 47.44375 140.45375 48.1875 140.6875 C51.56112513 142.2618584 53.37050815 144.37050815 56 147 C57.98244394 148.34047126 60.01275286 149.5701807 62.0625 150.8046875 C64.5633785 152.34756819 66.82280927 154.0269209 69 156 C69 156.66 69 157.32 69 158 C70.134375 158.28875 71.26875 158.5775 72.4375 158.875 C74.2009375 159.431875 74.2009375 159.431875 76 160 C76.33 160.66 76.66 161.32 77 162 C78.99032585 162.94233505 81.01787029 163.80714812 83.0625 164.625 C84.16722656 165.07101562 85.27195312 165.51703125 86.41015625 165.9765625 C87.26480469 166.31429687 88.11945313 166.65203125 89 167 C89 167.66 89 168.32 89 169 C89.73863281 169.17015625 90.47726562 169.3403125 91.23828125 169.515625 C98.36591397 171.21828695 105.16884547 173.35091055 112 176 C112 176.66 112 177.32 112 178 C113.05912598 178.17390259 113.05912598 178.17390259 114.13964844 178.35131836 C117.3433825 178.87833841 120.54669287 179.40789144 123.75 179.9375 C124.86117187 180.11990234 125.97234375 180.30230469 127.1171875 180.49023438 C128.18710937 180.66748047 129.25703125 180.84472656 130.359375 181.02734375 C131.34389648 181.18968506 132.32841797 181.35202637 133.34277344 181.51928711 C136 182 136 182 137.88525391 182.51721191 C140.14128364 183.03225449 142.18072556 183.1588077 144.49316406 183.20532227 C145.37377502 183.22526749 146.25438599 183.24521271 147.16168213 183.26576233 C148.57438385 183.29083107 148.57438385 183.29083107 150.015625 183.31640625 C151.47207428 183.3475779 151.47207428 183.3475779 152.95794678 183.37937927 C156.05522685 183.44468862 159.15259068 183.50367323 162.25 183.5625 C164.35157111 183.60570292 166.4531338 183.64931778 168.5546875 183.69335938 C173.70303948 183.80035098 178.85147558 183.9016709 184 184 C184 183.34 184 182.68 184 182 C187.43700628 181.49656628 190.87468008 180.99784476 194.3125 180.5 C195.28896484 180.35691406 196.26542969 180.21382812 197.27148438 180.06640625 C198.20927734 179.93105469 199.14707031 179.79570313 200.11328125 179.65625 C200.97735596 179.53056641 201.84143066 179.40488281 202.73168945 179.27539062 C205 179 205 179 208 179 C208 178.34 208 177.68 208 177 C210.60258324 176.16142312 213.20685647 175.32896656 215.8125 174.5 C216.55048828 174.26152344 217.28847656 174.02304687 218.04882812 173.77734375 C221.13255196 172.80059864 223.74495809 172 227 172 C227 171.34 227 170.68 227 170 C227.71285156 169.68546875 228.42570313 169.3709375 229.16015625 169.046875 C235.62695067 166.17122044 235.62695067 166.17122044 241.8125 162.75 C244.99571146 161.00235449 247.41165636 160.35008231 251 160 C251 159.34 251 158.68 251 158 C251.804375 157.731875 252.60875 157.46375 253.4375 157.1875 C254.283125 156.795625 255.12875 156.40375 256 156 C256.33 155.01 256.66 154.02 257 153 C258.71521778 151.95181136 260.43467402 150.90588547 262.2109375 149.96484375 C264.24703385 148.9026758 264.24703385 148.9026758 267 147 C266.46548206 150.99529508 264.55912701 152.72566892 261.6875 155.4375 C259.22035034 157.81514739 256.94761817 160.06585145 254.8125 162.75 C252.47125381 165.65637458 249.97256936 167.73826245 247 170 C246.34 170 245.68 170 245 170 C245 170.66 245 171.32 245 172 C243.03959051 173.39088907 241.03173488 174.71554246 239 176 C237.74123047 176.88558594 237.74123047 176.88558594 236.45703125 177.7890625 C201.52100003 202.04302805 160.41590929 211.15422634 118.328125 204.6171875 C117.22984375 204.41351562 116.1315625 204.20984375 115 204 C113.44539063 203.72542969 113.44539063 203.72542969 111.859375 203.4453125 C85.92701353 198.16762084 63.00246218 186.10698021 43 169 C42.17886719 168.32582031 41.35773438 167.65164063 40.51171875 166.95703125 C33.43458687 160.94090479 27.82341457 153.93483425 22.21142578 146.57958984 C21.21530114 145.28073325 20.18790782 144.00591676 19.15234375 142.73828125 C18 141 18 141 18 138 C17.34 138 16.68 138 16 138 C14.44453852 135.86199117 13.02042577 133.73948819 11.625 131.5 C11.22087891 130.85869141 10.81675781 130.21738281 10.40039062 129.55664062 C2.72543156 117.25431565 2.72543156 117.25431565 2 110 C1.34 110 0.68 110 0 110 C-13.29373099 85.30085208 -13.41534083 48.47687275 -7 22 C-6.67097073 20.54447495 -6.34287167 19.08873937 -6.015625 17.6328125 C-4.5638348 11.39608279 -3.06713307 5.67245348 0 0 Z " fill="#B7C2A3" transform="translate(288,580)"/>
<path d="M0 0 C0.98363525 0.01442139 1.96727051 0.02884277 2.98071289 0.04370117 C16.93425089 0.44615407 31.46871295 2.21880852 44.4375 7.5625 C44.4375 8.2225 44.4375 8.8825 44.4375 9.5625 C45.12457031 9.68367188 45.81164062 9.80484375 46.51953125 9.9296875 C47.42058594 10.09726562 48.32164062 10.26484375 49.25 10.4375 C50.14332031 10.59992187 51.03664063 10.76234375 51.95703125 10.9296875 C54.4375 11.5625 54.4375 11.5625 57.4375 13.5625 C57.4375 14.2225 57.4375 14.8825 57.4375 15.5625 C58.22125 15.76875 59.005 15.975 59.8125 16.1875 C64.68485302 18.0356339 69.21676645 20.4928756 73.4375 23.5625 C73.4375 24.2225 73.4375 24.8825 73.4375 25.5625 C74.38625 25.81 75.335 26.0575 76.3125 26.3125 C79.87309968 27.73673987 79.95492659 28.27965887 81.4375 31.5625 C82.31921875 31.72878906 82.31921875 31.72878906 83.21875 31.8984375 C86.37332309 32.8425879 87.6663371 34.65879526 89.8125 37.125 C90.59496094 38.0221875 91.37742187 38.919375 92.18359375 39.84375 C94.66395092 42.83565397 97.00453494 45.89246116 99.24609375 49.06640625 C100.38455759 50.71148066 100.38455759 50.71148066 102.4375 51.5625 C103.47428598 53.25774616 104.44392864 54.9944685 105.375 56.75 C105.90222656 57.74257813 106.42945313 58.73515625 106.97265625 59.7578125 C107.45605469 60.68335938 107.93945312 61.60890625 108.4375 62.5625 C108.78683594 63.21992187 109.13617187 63.87734375 109.49609375 64.5546875 C111.4375 68.2888756 111.4375 68.2888756 111.4375 70.5625 C112.0975 70.5625 112.7575 70.5625 113.4375 70.5625 C114.92352164 74.28897125 116.40010245 78.01911348 117.875 81.75 C118.29587891 82.80509766 118.71675781 83.86019531 119.15039062 84.94726562 C119.55322266 85.96884766 119.95605469 86.99042969 120.37109375 88.04296875 C120.74290771 88.98035889 121.11472168 89.91774902 121.49780273 90.88354492 C123.6308683 96.96463831 124.86224856 103.51871899 122.0625 109.5 C120.4375 111.5625 120.4375 111.5625 118.4375 112.5625 C114.44635656 112.82421432 111.40135451 112.83489367 107.5625 111.75 C104.5270355 108.62525713 104.41893054 105.48943902 103.89453125 101.25390625 C103.44643915 98.61514165 102.70048995 96.8926675 101.4375 94.5625 C101.128125 93.469375 100.81875 92.37625 100.5 91.25 C99.4256017 87.52120588 98.07086398 84.0696365 96.4375 80.5625 C96.08816406 79.799375 95.73882813 79.03625 95.37890625 78.25 C92.68779659 72.60308138 89.52031325 67.61652553 85.79296875 62.59375 C84.4375 60.5625 84.4375 60.5625 84.4375 58.5625 C83.7775 58.5625 83.1175 58.5625 82.4375 58.5625 C81.839375 57.655 81.24125 56.7475 80.625 55.8125 C78.10657398 52.07083849 75.47580165 49.58165083 71.4375 47.5625 C71.4375 46.9025 71.4375 46.2425 71.4375 45.5625 C70.86 45.27375 70.2825 44.985 69.6875 44.6875 C67.60416667 43.64583333 65.52083333 42.60416667 63.4375 41.5625 C63.4375 40.9025 63.4375 40.2425 63.4375 39.5625 C62.4165625 39.19125 62.4165625 39.19125 61.375 38.8125 C57.86884917 37.32052092 54.72129632 35.49414489 51.4375 33.5625 C51.4375 32.9025 51.4375 32.2425 51.4375 31.5625 C50.51517578 31.27246094 50.51517578 31.27246094 49.57421875 30.9765625 C48.76597656 30.71617187 47.95773437 30.45578125 47.125 30.1875 C46.32449219 29.93226563 45.52398437 29.67703125 44.69921875 29.4140625 C42.4375 28.5625 42.4375 28.5625 39.4375 26.5625 C37.47857568 26.05743287 35.51823666 25.5564674 33.54785156 25.09814453 C31.4375 24.5625 31.4375 24.5625 27.9921875 23.30859375 C16.87425658 19.35476481 6.09802526 18.92688487 -5.58056641 18.83959961 C-6.84175293 18.82678955 -8.10293945 18.81397949 -9.40234375 18.80078125 C-10.54050537 18.80118408 -11.67866699 18.80158691 -12.85131836 18.80200195 C-15.5625 18.5625 -15.5625 18.5625 -17.5625 16.5625 C-17.5625 15.5725 -17.5625 14.5825 -17.5625 13.5625 C-18.2225 13.5625 -18.8825 13.5625 -19.5625 13.5625 C-19.5625 10.9225 -19.5625 8.2825 -19.5625 5.5625 C-12.97746415 1.13523839 -7.88424574 -0.22667292 0 0 Z " fill="#FCFDFB" transform="translate(438.5625,501.4375)"/>
<path d="M0 0 C2.8487391 0.35845062 3.88047592 0.87354699 5.88671875 2.99609375 C6.48097656 3.80175781 7.07523438 4.60742188 7.6875 5.4375 C8.28949219 6.24058594 8.89148438 7.04367187 9.51171875 7.87109375 C13.74898497 13.93227508 12.7175913 22.8457385 12 30 C10.87264201 34.36365292 9.17525254 38.06603264 7 42 C6.5771875 42.8353125 6.154375 43.670625 5.71875 44.53125 C1.64769247 52.01063476 -4.07248834 57.98091162 -10 64 C-10.7321875 64.75667969 -11.464375 65.51335937 -12.21875 66.29296875 C-18.33265314 72.19014771 -25.30570348 75.5617274 -33 79 C-34.26650391 79.5878125 -34.26650391 79.5878125 -35.55859375 80.1875 C-38.43483951 81.14471459 -40.78921048 81.19785035 -43.8125 81.125 C-44.78832031 81.10695313 -45.76414062 81.08890625 -46.76953125 81.0703125 C-47.50558594 81.04710937 -48.24164062 81.02390625 -49 81 C-51.125 75.375 -51.125 75.375 -50 72 C-50.66 71.649375 -51.32 71.29875 -52 70.9375 C-54 69 -54 69 -54.55859375 65.8671875 C-53.76468599 60.37090297 -50.9343455 57.96904006 -47.0625 54.1875 C-45.76023266 52.86995679 -44.45938012 51.55101321 -43.16015625 50.23046875 C-42.57886963 49.65707764 -41.99758301 49.08368652 -41.39868164 48.49291992 C-39.89768215 47.03299634 -39.89768215 47.03299634 -39 45 C-38.34 45 -37.68 45 -37 45 C-37 44.34 -37 43.68 -37 43 C-35.89270251 41.83852944 -34.774778 40.68608027 -33.61767578 39.57421875 C-30.27985152 36.32606137 -27.13072829 32.88932939 -23.9375 29.5 C-23.23044922 28.75363281 -22.52339844 28.00726562 -21.79492188 27.23828125 C-18.94784096 24.21743484 -16.1883267 21.24076033 -13.62890625 17.96875 C-13.09136719 17.3190625 -12.55382812 16.669375 -12 16 C-11.34 16 -10.68 16 -10 16 C-9.6596875 15.0409375 -9.6596875 15.0409375 -9.3125 14.0625 C-8 12 -8 12 -5.5 11.1875 C-3 11 -3 11 -1 12 C0.4216319 8.6828589 1.39009109 5.55780196 2 2 C1.34 2 0.68 2 0 2 C0 1.34 0 0.68 0 0 Z " fill="#718555" transform="translate(858,934)"/>
<path d="M0 0 C1.27875 -0.061875 2.5575 -0.12375 3.875 -0.1875 C4.95394531 -0.23970703 4.95394531 -0.23970703 6.0546875 -0.29296875 C6.69664062 -0.19628906 7.33859375 -0.09960938 8 0 C10 3 10 3 9.75 5.5 C9 8 9 8 7 11 C6.34 11 5.68 11 5 11 C4.690625 11.61875 4.38125 12.2375 4.0625 12.875 C3.375 14.25 2.6875 15.625 2 17 C1.34 17 0.68 17 0 17 C-0.433125 17.8971875 -0.433125 17.8971875 -0.875 18.8125 C-2 21 -2 21 -4 24 C-4.66 24 -5.32 24 -6 24 C-6.26425781 24.59296875 -6.52851562 25.1859375 -6.80078125 25.796875 C-8.04370425 28.08029054 -9.30401646 29.47426723 -11.1875 31.25 C-13.69523724 33.68033794 -16.04696237 36.15505658 -18.3125 38.8125 C-21.89630567 42.98954334 -25.79949445 46.79330289 -29.765625 50.60546875 C-32.0955008 52.90974141 -32.0955008 52.90974141 -33.54296875 55.7734375 C-35 58 -35 58 -36.97265625 58.55859375 C-42.77777778 58.22222222 -42.77777778 58.22222222 -45 56 C-45.62538143 52.48824275 -45.73188544 50.09084086 -43.69580078 47.05615234 C-41.89055598 45.01252724 -40.01317093 43.09267423 -38.0625 41.1875 C-36.76023266 39.86995679 -35.45938012 38.55101321 -34.16015625 37.23046875 C-33.57886963 36.65707764 -32.99758301 36.08368652 -32.39868164 35.49291992 C-30.89768215 34.03299634 -30.89768215 34.03299634 -30 32 C-29.34 32 -28.68 32 -28 32 C-28 31.34 -28 30.68 -28 30 C-26.89270251 28.83852944 -25.774778 27.68608027 -24.61767578 26.57421875 C-21.27985152 23.32606137 -18.13072829 19.88932939 -14.9375 16.5 C-14.23044922 15.75363281 -13.52339844 15.00726562 -12.79492188 14.23828125 C-9.94784096 11.21743484 -7.1883267 8.24076033 -4.62890625 4.96875 C-4.09136719 4.3190625 -3.55382812 3.669375 -3 3 C-2.34 3 -1.68 3 -1 3 C-0.67 2.01 -0.34 1.02 0 0 Z " fill="#A4B08E" transform="translate(849,947)"/>
<path d="M0 0 C3.9053801 0.52589004 5.32259456 2.12492181 7.6875 5.1875 C10.35183128 8.75132774 11.88285943 11.43151768 12 16 C11.21625 16.309375 10.4325 16.61875 9.625 16.9375 C7.07669872 17.92875038 7.07669872 17.92875038 5 19 C4.67 18.34 4.34 17.68 4 17 C3.01 17.99 2.02 18.98 1 20 C0.34 17.69 -0.32 15.38 -1 13 C-1.78375 13.20625 -2.5675 13.4125 -3.375 13.625 C-4.24125 13.74875 -5.1075 13.8725 -6 14 C-6.66 13.34 -7.32 12.68 -8 12 C-3.25 10.875 -3.25 10.875 -1 12 C0.4216319 8.6828589 1.39009109 5.55780196 2 2 C1.34 2 0.68 2 0 2 C0 1.34 0 0.68 0 0 Z " fill="#788A5E" transform="translate(858,934)"/>
<path d="M0 0 C0.33 0 0.66 0 1 0 C0 7 0 7 -0.5625 10.375 C-1.00000276 14.00002291 -1.0377893 17.44027613 -0.9375 21.08203125 C-1 23 -1 23 -2 25 C-2.6686655 35.34098972 -1.64544824 45.69835968 -0.71166992 55.99047852 C-0.14772971 62.34949451 0.12758849 68.61614514 0 75 C-2.31646259 72.68353741 -2.2759094 72.13726838 -2.5 69 C-2.77545683 65.70888965 -3.2720691 62.5992953 -4.01171875 59.3828125 C-5.13894883 53.84988083 -5.34349564 48.50963085 -5.3125 42.875 C-5.30976074 41.85035645 -5.30702148 40.82571289 -5.30419922 39.77001953 C-5.13283358 26.83092895 -4.72122988 12.19308934 0 0 Z " fill="#D6DECA" transform="translate(271,594)"/>
<path d="M0 0 C0.97963374 3.17337094 1.00148074 5.69159758 0.66015625 8.984375 C0.56669922 9.91894531 0.47324219 10.85351562 0.37695312 11.81640625 C0.22129883 13.26853516 0.22129883 13.26853516 0.0625 14.75 C-0.03740234 15.73355469 -0.13730469 16.71710937 -0.24023438 17.73046875 C-0.48732902 20.15434959 -0.74079713 22.57738907 -1 25 C-2.32 24.34 -3.64 23.68 -5 23 C-6.81857774 32.6533309 -8.45089248 42.17286886 -9 52 C-9.33 52 -9.66 52 -10 52 C-10.77805041 35.43040792 -7.96167972 14.72458379 0 0 Z " fill="#C0C8B2" transform="translate(288,580)"/>
<path d="M0 0 C0.33 0.66 0.66 1.32 1 2 C0.34 2 -0.32 2 -1 2 C-1 2.66 -1 3.32 -1 4 C-1.61488281 4.32613281 -2.22976563 4.65226562 -2.86328125 4.98828125 C-4.07564453 5.64376953 -4.07564453 5.64376953 -5.3125 6.3125 C-6.11300781 6.74175781 -6.91351563 7.17101562 -7.73828125 7.61328125 C-11.18688291 9.72770887 -12.70907248 11.12721744 -14 15 C-16 15.625 -16 15.625 -18 16 C-19.35618499 17.12534105 -19.35618499 17.12534105 -19.0625 20.0625 C-19.041875 21.031875 -19.02125 22.00125 -19 23 C-20.45792884 23.05399736 -21.91642712 23.09279177 -23.375 23.125 C-24.59316406 23.15980469 -24.59316406 23.15980469 -25.8359375 23.1953125 C-28 23 -28 23 -30 21 C-28.8803014 19.99406757 -27.7540588 18.9954151 -26.625 18 C-25.99851562 17.443125 -25.37203125 16.88625 -24.7265625 16.3125 C-23 15 -23 15 -21 15 C-21 14.34 -21 13.68 -21 13 C-18.84094462 11.448834 -16.69269592 10.02335856 -14.4375 8.625 C-13.82841797 8.23828125 -13.21933594 7.8515625 -12.59179688 7.453125 C-8.46038291 4.84749249 -4.25469511 2.39839956 0 0 Z " fill="#77875D" transform="translate(331,464)"/>
<path d="M0 0 C2.625 0.375 2.625 0.375 5 1 C5.2475 1.94875 5.495 2.8975 5.75 3.875 C6.66955467 7.08246095 6.66955467 7.08246095 9.0625 8.25 C9.701875 8.4975 10.34125 8.745 11 9 C11.33 9.66 11.66 10.32 12 11 C12.99 11.66 13.98 12.32 15 13 C18 15 18 15 19 17 C19.66 17.33 20.32 17.66 21 18 C19.02 18.99 19.02 18.99 17 20 C15.66079162 18.88200014 14.32877444 17.75538103 13 16.625 C12.2575 15.99851562 11.515 15.37203125 10.75 14.7265625 C10.1725 14.15679688 9.595 13.58703125 9 13 C9 12.34 9 11.68 9 11 C8.41734375 10.74476563 7.8346875 10.48953125 7.234375 10.2265625 C4.78611777 8.88258913 3.18256752 7.38189704 1.25 5.375 C0.63640625 4.74335937 0.0228125 4.11171875 -0.609375 3.4609375 C-1.06828125 2.97882812 -1.5271875 2.49671875 -2 2 C-1.34 1.34 -0.68 0.68 0 0 Z " fill="#7D8C6B" transform="translate(706,922)"/>
<path d="M0 0 C0.33 0 0.66 0 1 0 C1.06058594 1.04800781 1.12117187 2.09601562 1.18359375 3.17578125 C1.26801738 4.55470048 1.35266447 5.93360605 1.4375 7.3125 C1.47681641 8.00279297 1.51613281 8.69308594 1.55664062 9.40429688 C1.74927415 12.47161535 2.02322717 15.06968152 3 18 C2.91382274 20.232269 2.76077759 22.46238486 2.5625 24.6875 C2.46066406 25.86699219 2.35882812 27.04648437 2.25390625 28.26171875 C2.17011719 29.16535156 2.08632813 30.06898438 2 31 C1.34 31 0.68 31 0 31 C-0.04898438 32.20398438 -0.09796875 33.40796875 -0.1484375 34.6484375 C-0.22346343 36.22398198 -0.29901133 37.79950166 -0.375 39.375 C-0.4059375 40.1690625 -0.436875 40.963125 -0.46875 41.78125 C-0.7734375 47.7734375 -0.7734375 47.7734375 -3 50 C-2.86722656 48.90429688 -2.73445312 47.80859375 -2.59765625 46.6796875 C-0.83065153 31.14741536 -0.38489431 15.614818 0 0 Z " fill="#E0E7D4" transform="translate(634,624)"/>
<path d="M0 0 C0.33 0.99 0.66 1.98 1 3 C1.66 3 2.32 3 3 3 C3.20496094 4.30195312 3.40992188 5.60390625 3.62109375 6.9453125 C3.89321536 8.67187718 4.16535154 10.39843956 4.4375 12.125 C4.57220703 12.9809375 4.70691406 13.836875 4.84570312 14.71875 C5.54435882 19.14924955 6.25321459 23.57729031 7 28 C6.01 28.33 5.02 28.66 4 29 C1.80781811 24.61563621 2.84225351 18.63098598 4 14 C3.34 14 2.68 14 2 14 C1.67 14.66 1.34 15.32 1 16 C0.14701624 12.32612505 -0.10789471 8.9552607 -0.0625 5.1875 C-0.05347656 4.21167969 -0.04445313 3.23585938 -0.03515625 2.23046875 C-0.02355469 1.49441406 -0.01195312 0.75835938 0 0 Z " fill="#7B8D61" transform="translate(264,645)"/>
<path d="M0 0 C15.65564539 -0.342363 30.62594125 -0.14597061 46 3 C43.46405977 4.65811477 42.25396672 5.02829713 39.1953125 4.6875 C38.14085937 4.460625 37.08640625 4.23375 36 4 C24.01627203 2.22873305 12.09768554 1.47101645 0 1 C0 0.67 0 0.34 0 0 Z " fill="#DDE5D0" transform="translate(418,470)"/>
<path d="M0 0 C0.33 0.66 0.66 1.32 1 2 C0.04060332 3.69036558 -0.96642853 5.35394174 -2 7 C-2.268125 7.78375 -2.53625 8.5675 -2.8125 9.375 C-4.50958335 13.1264474 -7.01235942 16.17200433 -10 19 C-10.99 19.33 -11.98 19.66 -13 20 C-13.66 19.34 -14.32 18.68 -15 18 C-14.50371094 17.53851562 -14.00742187 17.07703125 -13.49609375 16.6015625 C-8.2077827 11.52398111 -4.01566758 6.12389306 0 0 Z " fill="#E6EEE0" transform="translate(862,980)"/>
<path d="M0 0 C0.66 0.33 1.32 0.66 2 1 C-1.1391283 4.30630081 -4.1180478 7.41828685 -7.9375 9.9375 C-11.52068024 12.3506622 -14.28726109 15.18184831 -17.265625 18.29296875 C-19 20 -19 20 -21 21 C-21.33 21.99 -21.66 22.98 -22 24 C-22.99 23.67 -23.98 23.34 -25 23 C-23.625 21 -23.625 21 -22 19 C-21.34 19 -20.68 19 -20 19 C-20 18.34 -20 17.68 -20 17 C-19.34 17 -18.68 17 -18 17 C-18 16.34 -18 15.68 -18 15 C-17.34 15 -16.68 15 -16 15 C-16 14.34 -16 13.68 -16 13 C-14.32464541 11.48015117 -12.58294378 10.03293547 -10.8125 8.625 C-9.84957031 7.85414063 -8.88664062 7.08328125 -7.89453125 6.2890625 C-6.93933594 5.53367187 -5.98414063 4.77828125 -5 4 C-3.33288965 2.66722146 -1.66607219 1.33407609 0 0 Z " fill="#DFE4D7" transform="translate(342,509)"/>
<path d="M0 0 C0.99 0.33 1.98 0.66 3 1 C3 1.66 3 2.32 3 3 C3.82757812 3.36738281 3.82757812 3.36738281 4.671875 3.7421875 C7.47639491 5.25738114 9.78103123 7.11084126 12.25 9.125 C13.14203125 9.84945312 14.0340625 10.57390625 14.953125 11.3203125 C15.62859375 11.87460937 16.3040625 12.42890625 17 13 C15.68 13.33 14.36 13.66 13 14 C12.67 13.01 12.34 12.02 12 11 C11.21625 10.896875 10.4325 10.79375 9.625 10.6875 C7 10 7 10 5 7 C3.68 7 2.36 7 1 7 C0.34 5.02 -0.32 3.04 -1 1 C-0.67 0.67 -0.34 0.34 0 0 Z " fill="#7C8A66" transform="translate(706,808)"/>
<path d="M0 0 C0.33 0 0.66 0 1 0 C1.33 3.96 1.66 7.92 2 12 C2.33 12 2.66 12 3 12 C3.797837 18.69613196 4.12910853 25.25766581 4 32 C1.61228265 29.61228265 1.68710776 28.77145486 1.4375 25.5 C1.18963831 22.12355437 1.18963831 22.12355437 0 19 C-0.08342159 17.55151418 -0.10732861 16.09929131 -0.09765625 14.6484375 C-0.09443359 13.79765625 -0.09121094 12.946875 -0.08789062 12.0703125 C-0.07951172 11.18085937 -0.07113281 10.29140625 -0.0625 9.375 C-0.05798828 8.4778125 -0.05347656 7.580625 -0.04882812 6.65625 C-0.03702591 4.43743352 -0.02056155 2.21874982 0 0 Z " fill="#E9F0DE" transform="translate(267,637)"/>
<path d="M0 0 C0 3 0 3 -1 5 C-1.66 5 -2.32 5 -3 5 C-3.2475 5.598125 -3.495 6.19625 -3.75 6.8125 C-5.18072525 9.31626919 -6.5691582 10.48072388 -9 12 C-9.66 12 -10.32 12 -11 12 C-11 12.99 -11 13.98 -11 15 C-11.66 15 -12.32 15 -13 15 C-13.33 15.66 -13.66 16.32 -14 17 C-14.66 16.34 -15.32 15.68 -16 15 C-13.89888324 12.87190742 -11.79429065 10.74746285 -9.6875 8.625 C-9.09259766 8.02171875 -8.49769531 7.4184375 -7.88476562 6.796875 C-7.30791016 6.21679688 -6.73105469 5.63671875 -6.13671875 5.0390625 C-5.60780029 4.50490723 -5.07888184 3.97075195 -4.53393555 3.42041016 C-3 2 -3 2 0 0 Z " fill="#7F8B6A" transform="translate(300,486)"/>
<path d="M0 0 C1.99788438 0.34578768 3.99759451 0.68143549 6 1 C2.72828292 2.75439901 -0.60422042 3.95717385 -4.125 5.125 C-5.17945313 5.47820312 -6.23390625 5.83140625 -7.3203125 6.1953125 C-10 7 -10 7 -12 7 C-12 6.34 -12 5.68 -12 5 C-11.01 4.67 -10.02 4.34 -9 4 C-9.33 3.34 -9.66 2.68 -10 2 C-9.01 2 -8.02 2 -7 2 C-7 1.34 -7 0.68 -7 0 C-3.70955471 -1.0968151 -3.16885176 -0.90538622 0 0 Z " fill="#7E8E6D" transform="translate(386,474)"/>
<path d="M0 0 C0.33 0.66 0.66 1.32 1 2 C0.34 2 -0.32 2 -1 2 C-1 2.66 -1 3.32 -1 4 C-1.61488281 4.32613281 -2.22976563 4.65226562 -2.86328125 4.98828125 C-4.07564453 5.64376953 -4.07564453 5.64376953 -5.3125 6.3125 C-6.11300781 6.74175781 -6.91351563 7.17101562 -7.73828125 7.61328125 C-11.18688291 9.72770887 -12.70907248 11.12721744 -14 15 C-16.31 14.67 -18.62 14.34 -21 14 C-17.11792715 10.76863651 -13.06812022 8.01172829 -8.8125 5.3125 C-8.18408203 4.90966797 -7.55566406 4.50683594 -6.90820312 4.09179688 C-2.30399373 1.15199686 -2.30399373 1.15199686 0 0 Z " fill="#808E6C" transform="translate(331,464)"/>
<path d="M0 0 C0.66 0.33 1.32 0.66 2 1 C1.34 1.66 0.68 2.32 0 3 C0.99 3.66 1.98 4.32 3 5 C-1.71599818 5.92470553 -4.67265609 6.22923777 -9 4 C-9.33 4.99 -9.66 5.98 -10 7 C-12.64 7 -15.28 7 -18 7 C-14.89345234 5.3622692 -11.74254975 4.12012324 -8.4375 2.9375 C-7.48746094 2.59589844 -6.53742188 2.25429688 -5.55859375 1.90234375 C-3.71171476 1.25100169 -1.8578718 0.6192906 0 0 Z " fill="#788763" transform="translate(496,785)"/>
<path d="M0 0 C0.99457718 0.00212242 0.99457718 0.00212242 2.00924683 0.00428772 C4.12860613 0.00988871 6.24786009 0.02244125 8.3671875 0.03515625 C9.80338389 0.04017113 11.23958194 0.04473406 12.67578125 0.04882812 C16.19795095 0.05985843 19.72005895 0.07712366 23.2421875 0.09765625 C23.2421875 0.42765625 23.2421875 0.75765625 23.2421875 1.09765625 C15.9821875 1.09765625 8.7221875 1.09765625 1.2421875 1.09765625 C1.2421875 1.75765625 1.2421875 2.41765625 1.2421875 3.09765625 C-4.8125 3.29296875 -4.8125 3.29296875 -6.7578125 3.09765625 C-7.4178125 2.43765625 -8.0778125 1.77765625 -8.7578125 1.09765625 C-5.8358356 -0.3633322 -3.25887775 -0.01369276 0 0 Z " fill="#8E9B78" transform="translate(422.7578125,796.90234375)"/>
<path d="M0 0 C2.64 1.98 5.28 3.96 8 6 C6 10 6 10 3 12 C1.14223235 8.86501708 0.79859524 6.62528568 1 3 C0.01 2.67 -0.98 2.34 -2 2 C-1.34 1.34 -0.68 0.68 0 0 Z " fill="#798661" transform="translate(646,776)"/>
<path d="M0 0 C1.13671875 1.70703125 1.13671875 1.70703125 2 4 C1.20703125 6.32421875 1.20703125 6.32421875 -0.1875 8.6875 C-0.63480469 9.47511719 -1.08210938 10.26273438 -1.54296875 11.07421875 C-3 13 -3 13 -6 14 C-6 14.66 -6 15.32 -6 16 C-6.66 16 -7.32 16 -8 16 C-6.42986223 10.03347646 -3.24970218 5.17090975 0 0 Z " fill="#7D8A6B" transform="translate(261,531)"/>
<path d="M0 0 C2.475 0.99 2.475 0.99 5 2 C4.14285714 10.57142857 4.14285714 10.57142857 2 14 C1.34 13.67 0.68 13.34 0 13 C0 8.71 0 4.42 0 0 Z " fill="#7D8C64" transform="translate(627,664)"/>
<path d="M0 0 C0.66 1.32 1.32 2.64 2 4 C1.01 5.485 1.01 5.485 0 7 C-0.66 7 -1.32 7 -2 7 C-2.33 7.99 -2.66 8.98 -3 10 C-4.32467746 10.6837045 -5.65863633 11.34964186 -7 12 C-7.99 13.485 -7.99 13.485 -9 15 C-9.66 14.67 -10.32 14.34 -11 14 C-3.70159453 4.58997722 -3.70159453 4.58997722 0 0 Z " fill="#808E6D" transform="translate(571,726)"/>
<path d="M0 0 C0 0.33 0 0.66 0 1 C-4.99739836 2.62958642 -9.61477043 3.33474857 -14.86328125 3.65625 C-17.21036751 3.81982304 -17.21036751 3.81982304 -19 6 C-22.625 5.625 -22.625 5.625 -26 5 C-23.21014666 2.21014666 -20.12303075 2.0416189 -16.375 1.375 C-15.68792969 1.2409375 -15.00085938 1.106875 -14.29296875 0.96875 C-9.46182222 0.08047165 -4.91028967 -0.12137795 0 0 Z " fill="#E2E9D7" transform="translate(418,471)"/>
<path d="M0 0 C-0.1875 2.375 -0.1875 2.375 -1 5 C-3.88395625 6.76241771 -5.45702944 7.07239607 -8.8125 6.625 C-9.534375 6.41875 -10.25625 6.2125 -11 6 C-11.33 6.66 -11.66 7.32 -12 8 C-12.66 7.34 -13.32 6.68 -14 6 C-12.04414675 4.99515796 -10.08523763 3.99626195 -8.125 3 C-6.48917969 2.1646875 -6.48917969 2.1646875 -4.8203125 1.3125 C-2 0 -2 0 0 0 Z M-7 7 C-5.515 7.99 -5.515 7.99 -4 9 C-4.99 9 -5.98 9 -7 9 C-7 8.34 -7 7.68 -7 7 Z " fill="#879672" transform="translate(520,774)"/>
<path d="M0 0 C2.08307709 2.49969251 3.51226006 5.00705518 4.875 7.9375 C6.71983384 11.76302753 8.83776239 14.18912212 12 17 C11.34 17.66 10.68 18.32 10 19 C8.51851668 17.21024844 7.03988094 15.41813943 5.5625 13.625 C4.73878906 12.62726562 3.91507812 11.62953125 3.06640625 10.6015625 C0.02400961 6.7712484 -0.10532154 4.84479104 0 0 Z " fill="#75815F" transform="translate(267,739)"/>
<path d="M0 0 C0.66 0.33 1.32 0.66 2 1 C0.64285259 5.07144222 -2.08324536 6.63701845 -5.5390625 8.8515625 C-6.02117187 9.23054687 -6.50328125 9.60953125 -7 10 C-7 10.66 -7 11.32 -7 12 C-8.62626404 13.38232443 -10.2925002 14.71937515 -12 16 C-12.66 15.67 -13.32 15.34 -14 15 C-4.58997722 4.44191344 -4.58997722 4.44191344 0 0 Z " fill="#E5EBD9" transform="translate(318,515)"/>
<path d="M0 0 C0.26305952 8.2425317 -0.39385449 15.91191011 -2 24 C-2.33 24 -2.66 24 -3 24 C-3 16.41 -3 8.82 -3 1 C-1 0 -1 0 0 0 Z " fill="#E2E4DA" transform="translate(589,640)"/>
<path d="M0 0 C0.66 0.66 1.32 1.32 2 2 C0.56342755 2.33730842 -0.87430093 2.66969591 -2.3125 3 C-3.51326172 3.2784375 -3.51326172 3.2784375 -4.73828125 3.5625 C-7 4 -7 4 -10 4 C-12.1875 2.5 -12.1875 2.5 -14 1 C-12.41913952 0.63495397 -10.83516093 0.28339494 -9.25 -0.0625 C-8.36828125 -0.25972656 -7.4865625 -0.45695312 -6.578125 -0.66015625 C-3.96838952 -1.00416684 -2.44294738 -0.92938216 0 0 Z " fill="#81916A" transform="translate(396,442)"/>
<path d="M0 0 C2 3 2 3 2.125 5.3125 C0.35173198 9.54864028 -3.25489464 11.51748141 -7 14 C-5.23570801 9.02790438 -2.6060834 4.56561939 0 0 Z " fill="#828F6E" transform="translate(580,711)"/>
<path d="M0 0 C0.66 0.99 1.32 1.98 2 3 C1.2575 3.886875 0.515 4.77375 -0.25 5.6875 C-2.53640616 8.4298846 -4.77951375 11.20383213 -7 14 C-7.66 13.67 -8.32 13.34 -9 13 C-7.50923566 9.7173068 -5.61379679 7.06922559 -3.375 4.25 C-2.74335938 3.45078125 -2.11171875 2.6515625 -1.4609375 1.828125 C-0.97882813 1.22484375 -0.49671875 0.6215625 0 0 Z " fill="#7E8A6A" transform="translate(277,509)"/>
<path d="M0 0 C0.33 0 0.66 0 1 0 C1.22727902 4.18669523 1.42843191 8.3742594 1.625 12.5625 C1.68945312 13.74392578 1.75390625 14.92535156 1.8203125 16.14257812 C2.09263066 22.21867718 2.19722017 27.28890483 0 33 C-0.33 33 -0.66 33 -1 33 C-0.67 22.11 -0.34 11.22 0 0 Z " fill="#919B82" transform="translate(600,623)"/>
<path d="M0 0 C0.33 0 0.66 0 1 0 C1.33 5.61 1.66 11.22 2 17 C1.34 16.67 0.68 16.34 0 16 C-0.33 17.65 -0.66 19.3 -1 21 C-1.33 21 -1.66 21 -2 21 C-2.28100502 13.83437211 -1.20443195 7.05453001 0 0 Z " fill="#8F9A7B" transform="translate(235,594)"/>
<path d="M0 0 C3.49136815 3.0735976 5.06282057 5.93831924 6.75 10.25 C7.39195312 11.86648438 7.39195312 11.86648438 8.046875 13.515625 C8.51867187 14.74539063 8.51867187 14.74539063 9 16 C8.01 16.33 7.02 16.66 6 17 C3.06450076 11.52929686 1.44204221 6.0085092 0 0 Z " fill="#7F8A69" transform="translate(604,532)"/>
<path d="M0 0 C3.98484488 0.66414081 7.51016972 1.85511824 11.25 3.375 C12.30703125 3.79523438 13.3640625 4.21546875 14.453125 4.6484375 C17 6 17 6 18 9 C12 7 6 5 0 3 C0 2.01 0 1.02 0 0 Z " fill="#7F8D6D" transform="translate(481,475)"/>
<path d="M0 0 C0.98120464 3.05263664 0.98120464 4.94736336 0 8 C-0.86625 8.12375 -0.86625 8.12375 -1.75 8.25 C-4.6159304 9.20531013 -5.9990764 10.78469173 -8 13 C-8.66 12.34 -9.32 11.68 -10 11 C-9.44570313 10.45730469 -8.89140625 9.91460938 -8.3203125 9.35546875 C-7.23363281 8.28232422 -7.23363281 8.28232422 -6.125 7.1875 C-5.40570312 6.47980469 -4.68640625 5.77210938 -3.9453125 5.04296875 C-1.84641063 2.95600806 -1.84641063 2.95600806 0 0 Z " fill="#7D8B69" transform="translate(639,816)"/>
<path d="M0 0 C2.35694954 0.09031574 4.71153582 0.24688128 7.0625 0.4375 C8.35285156 0.53933594 9.64320313 0.64117188 10.97265625 0.74609375 C12.47119141 0.87177734 12.47119141 0.87177734 14 1 C14 1.33 14 1.66 14 2 C4.98175113 3.06996173 -3.93664124 3.10234659 -13 3 C-13 2.67 -13 2.34 -13 2 C-12.14535156 1.93941406 -11.29070312 1.87882813 -10.41015625 1.81640625 C-8.75306641 1.69072266 -8.75306641 1.69072266 -7.0625 1.5625 C-5.96035156 1.48128906 -4.85820312 1.40007813 -3.72265625 1.31640625 C-1.08890097 1.29581916 -1.08890097 1.29581916 0 0 Z " fill="#7A8766" transform="translate(425,827)"/>
<path d="M0 0 C0.66 1.65 1.32 3.3 2 5 C0.06077578 4.54901762 -1.87633594 4.08894441 -3.8125 3.625 C-4.89144531 3.36976563 -5.97039062 3.11453125 -7.08203125 2.8515625 C-10 2 -10 2 -13 0 C-8.37078475 -1.0161692 -4.65537393 -0.83796731 0 0 Z " fill="#849272" transform="translate(379,819)"/>
<path d="M0 0 C0.66 0.33 1.32 0.66 2 1 C1.67 2.98 1.34 4.96 1 7 C0.4225 7.103125 -0.155 7.20625 -0.75 7.3125 C-3.32049158 8.09792798 -4.93657284 9.30504197 -7 11 C-7.66 10.67 -8.32 10.34 -9 10 C-6.22237877 6.39937989 -3.26008643 3.16952847 0 0 Z " fill="#7D8B6B" transform="translate(654,800)"/>
<path d="M0 0 C0.66 0 1.32 0 2 0 C2 0.66 2 1.32 2 2 C2.66 2.33 3.32 2.66 4 3 C2.90554162 3.86657116 1.79902219 4.71792724 0.6875 5.5625 C0.07261719 6.03816406 -0.54226563 6.51382813 -1.17578125 7.00390625 C-1.77777344 7.33261719 -2.37976563 7.66132812 -3 8 C-3.99 7.67 -4.98 7.34 -6 7 C-6 6.01 -6 5.02 -6 4 C-4.125 2.9375 -4.125 2.9375 -2 2 C-1.34 2.33 -0.68 2.66 0 3 C0 2.01 0 1.02 0 0 Z " fill="#7A8964" transform="translate(839,1000)"/>
<path d="M0 0 C8.57142857 3.14285714 8.57142857 3.14285714 12 5 C12 5.66 12 6.32 12 7 C10.1875 7.6875 10.1875 7.6875 8 8 C6.25 6.5625 6.25 6.5625 5 5 C5.33 4.67 5.66 4.34 6 4 C3.69 3.67 1.38 3.34 -1 3 C-0.67 2.01 -0.34 1.02 0 0 Z " fill="#7F8E6C" transform="translate(513,454)"/>
<path d="M0 0 C0.66 0.66 1.32 1.32 2 2 C-0.64 5.3 -3.28 8.6 -6 12 C-6.66 11.67 -7.32 11.34 -8 11 C-7.67 10.01 -7.34 9.02 -7 8 C-6.34 8.33 -5.68 8.66 -5 9 C-5.33 8.01 -5.66 7.02 -6 6 C-5.34 6 -4.68 6 -4 6 C-4 5.34 -4 4.68 -4 4 C-3.34 4 -2.68 4 -2 4 C-1.67 3.01 -1.34 2.02 -1 1 C-0.67 0.67 -0.34 0.34 0 0 Z " fill="#7A8967" transform="translate(859,981)"/>
<path d="M0 0 C0.33 0.99 0.66 1.98 1 3 C-1.31 5.31 -3.62 7.62 -6 10 C-7.32 9.34 -8.64 8.68 -10 8 C-8.60020312 5.20040624 -6.36842507 4.43072405 -3.69140625 3 C-1.8257777 1.99165437 -1.8257777 1.99165437 0 0 Z " fill="#C3C7B5" transform="translate(554,727)"/>
<path d="M0 0 C0.66 0 1.32 0 2 0 C0.77443263 4.37702633 -0.53060547 8.69677317 -2 13 C-2.33 11.68 -2.66 10.36 -3 9 C-3.66 9 -4.32 9 -5 9 C-5 8.01 -5 7.02 -5 6 C-4.34 6 -3.68 6 -3 6 C-3 5.01 -3 4.02 -3 3 C-2.34 3 -1.68 3 -1 3 C-0.67 2.01 -0.34 1.02 0 0 Z " fill="#788865" transform="translate(623,694)"/>
<path d="M0 0 C0.33 0 0.66 0 1 0 C1.06058594 0.58007812 1.12117188 1.16015625 1.18359375 1.7578125 C1.66016561 6.20092863 2.21008666 10.59905423 3 15 C2.01 15.33 1.02 15.66 0 16 C-2.32622007 11.34755986 -0.98524838 4.9262419 0 0 Z " fill="#879470" transform="translate(268,658)"/>
<path d="M0 0 C0.22429688 0.91072266 0.22429688 0.91072266 0.453125 1.83984375 C0.85377503 3.42241138 1.29143412 4.99573324 1.75 6.5625 C1.8325 7.366875 1.915 8.17125 2 9 C0.6875 10.5625 0.6875 10.5625 -1 12 C-2.17574711 14.09989652 -2.17574711 14.09989652 -3 16 C-3.33266291 9.79029227 -2.45029331 5.71735105 0 0 Z " fill="#889574" transform="translate(628,828)"/>
<path d="M0 0 C0.99 0.33 1.98 0.66 3 1 C1.90033225 2.29549899 0.79508199 3.58626071 -0.3125 4.875 C-0.92738281 5.59429688 -1.54226563 6.31359375 -2.17578125 7.0546875 C-4 9 -4 9 -7 11 C-6.40716379 7.60807637 -5.23256811 5.7892243 -2.9375 3.25 C-2.38964844 2.63640625 -1.84179688 2.0228125 -1.27734375 1.390625 C-0.85582031 0.93171875 -0.43429687 0.4728125 0 0 Z " fill="#ECF1E3" transform="translate(636,816)"/>
<path d="M0 0 C2 1 2 1 2 1 Z M-10 1 C-6.61884349 0.70963351 -3.37080851 0.55091109 0 1 C2.625 3.5 2.625 3.5 4 6 C-1.05255964 5.36843005 -5.29593201 3.86540627 -10 2 C-10 1.67 -10 1.34 -10 1 Z " fill="#899674" transform="translate(358,811)"/>
<path d="M0 0 C3.59634744 3.49359465 6.83451967 7.11098131 10 11 C9.01 11.495 9.01 11.495 8 12 C8 11.34 8 10.68 8 10 C7.01 10.33 6.02 10.66 5 11 C5 10.01 5 9.02 5 8 C4.01 7.67 3.02 7.34 2 7 C2 6.34 2 5.68 2 5 C1.34 4.67 0.68 4.34 0 4 C0 2.68 0 1.36 0 0 Z " fill="#81906C" transform="translate(302,735)"/>
<path d="M0 0 C2.6490324 0.90823968 4.83352731 2.246073 7.1875 3.75 C6.8575 4.74 6.5275 5.73 6.1875 6.75 C2.19249382 5.3802836 -0.61259492 3.49277578 -3.8125 0.75 C-1.8125 -0.25 -1.8125 -0.25 0 0 Z " fill="#808E6E" transform="translate(517.8125,490.25)"/>
<path d="M0 0 C6.75 3.75 6.75 3.75 9 6 C9 6.99 9 7.98 9 9 C5.05860922 7.33248852 2.2107188 4.77289351 -1 2 C-0.67 1.34 -0.34 0.68 0 0 Z " fill="#F0F4E7" transform="translate(796,879)"/>
<path d="M0 0 C0.33 0.66 0.66 1.32 1 2 C0.67 2.99 0.34 3.98 0 5 C-0.66 5 -1.32 5 -2 5 C-2.33 6.32 -2.66 7.64 -3 9 C-5.49064888 9.68707555 -7.37886292 10 -10 10 C-8.37660195 8.29115995 -6.70680947 6.62553283 -5 5 C-4.34 5 -3.68 5 -3 5 C-2.690625 4.360625 -2.38125 3.72125 -2.0625 3.0625 C-1 1 -1 1 0 0 Z " fill="#889470" transform="translate(559,741)"/>
<path d="M0 0 C8.01426231 -0.48817841 13.94912244 0.01162482 21 4 C17.43533794 5.2551627 15.19380548 4.71463529 11.625 3.625 C7.75623343 2.4907833 4.00506088 1.54122444 0 1 C0 0.67 0 0.34 0 0 Z " fill="#E4EBD9" transform="translate(468,440)"/>
<path d="M0 0 C1.16161779 2.86578759 0.9946154 4.01630163 0.00390625 7.015625 C-0.70958984 8.61664062 -0.70958984 8.61664062 -1.4375 10.25 C-1.91058594 11.32765625 -2.38367188 12.4053125 -2.87109375 13.515625 C-3.24363281 14.33546875 -3.61617187 15.1553125 -4 16 C-5.40742022 13.18515955 -4.66652164 11.43063887 -4.0625 8.375 C-3.86785156 7.37210938 -3.67320312 6.36921875 -3.47265625 5.3359375 C-3.31667969 4.56507813 -3.16070313 3.79421875 -3 3 C-2.34 3 -1.68 3 -1 3 C-0.67 2.01 -0.34 1.02 0 0 Z " fill="#919F7E" transform="translate(869,960)"/>
<path d="M0 0 C1.4370809 -0.05422947 2.87475462 -0.09289723 4.3125 -0.125 C5.11300781 -0.14820313 5.91351563 -0.17140625 6.73828125 -0.1953125 C9 0 9 0 12 2 C5.62694402 2.74507544 -0.58311325 3.10349817 -7 3 C-7 2.67 -7 2.34 -7 2 C-4.69 2 -2.38 2 0 2 C0 1.34 0 0.68 0 0 Z " fill="#818D70" transform="translate(452,827)"/>
<path d="M0 0 C0.556875 0.226875 1.11375 0.45375 1.6875 0.6875 C-0.68047991 3.30474095 -3.20850354 5.01611729 -6.3125 6.6875 C-6.9725 6.6875 -7.6325 6.6875 -8.3125 6.6875 C-8.125 4.875 -8.125 4.875 -7.3125 2.6875 C-3.3125 -0.44763514 -3.3125 -0.44763514 0 0 Z " fill="#748461" transform="translate(538.3125,799.3125)"/>
<path d="M0 0 C6.75 0.75 6.75 0.75 9 3 C9.66 3.33 10.32 3.66 11 4 C11 4.99 11 5.98 11 7 C6.89188572 5.55007731 3.53144334 3.54592427 0 1 C0 0.67 0 0.34 0 0 Z " fill="#7E8A6B" transform="translate(317,794)"/>
<path d="M0 0 C1.89611434 0.14213297 3.79188394 0.28886907 5.6875 0.4375 C6.74324219 0.51871094 7.79898437 0.59992188 8.88671875 0.68359375 C11.65086297 0.96451681 14.28945741 1.40156852 17 2 C17 2.33 17 2.66 17 3 C14.54101345 3.08076963 12.08466258 3.14037143 9.625 3.1875 C8.57699219 3.22520508 8.57699219 3.22520508 7.5078125 3.26367188 C5.4765625 3.29296875 5.4765625 3.29296875 2 3 C1.34 2.01 0.68 1.02 0 0 Z " fill="#85916F" transform="translate(462,440)"/>
<path d="M0 0 C0.66 0.33 1.32 0.66 2 1 C1.505 1.61875 1.01 2.2375 0.5 2.875 C-1.19222773 4.83880904 -1.19222773 4.83880904 -1 7 C-3.97 7.66 -6.94 8.32 -10 9 C-6.85281112 5.7317654 -3.50647501 2.8689341 0 0 Z " fill="#899572" transform="translate(542,757)"/>
<path d="M0 0 C0.99 0.33 1.98 0.66 3 1 C-0.16952847 4.26008643 -3.39937989 7.22237877 -7 10 C-7.33 9.01 -7.66 8.02 -8 7 C-6.74057614 5.80040625 -5.46704714 4.61560557 -4.1875 3.4375 C-3.12595703 2.44556641 -3.12595703 2.44556641 -2.04296875 1.43359375 C-1.36878906 0.96050781 -0.69460938 0.48742187 0 0 Z " fill="#F2F7E7" transform="translate(556,741)"/>
<path d="M0 0 C1.98 0.66 3.96 1.32 6 2 C6.33 4.97 6.66 7.94 7 11 C4.04250209 7.53258866 1.92151848 4.13126473 0 0 Z " fill="#768362" transform="translate(256,727)"/>
<path d="M0 0 C1.29227216 4.18142349 0.54613006 6.90275533 -1 11 C-1.99 11.33 -2.98 11.66 -4 12 C-4 12.99 -4 13.98 -4 15 C-4.66 15 -5.32 15 -6 15 C-4 10 -2 5 0 0 Z " fill="#869476" transform="translate(588,694)"/>
<path d="M0 0 C1.18914114 3.71606605 1.42281576 7.12418883 1 11 C-1.5 12.9375 -1.5 12.9375 -4 14 C-3.52188823 12.22888156 -3.0424722 10.45811517 -2.5625 8.6875 C-2.29566406 7.70136719 -2.02882813 6.71523438 -1.75390625 5.69921875 C-1.21920575 3.78482474 -0.62855462 1.88566385 0 0 Z " fill="#8B9879" transform="translate(594,677)"/>
<path d="M0 0 C1.10470134 3.31410403 0.69905409 4.67949308 0 8 C1.10325547 9.3337793 1.10325547 9.3337793 3.875 9.0625 C4.90625 9.041875 5.9375 9.02125 7 9 C7.99 9 8.98 9 10 9 C8 11 8 11 6.125 11.265625 C5.42375 11.26046875 4.7225 11.2553125 4 11.25 C3.29875 11.25515625 2.5975 11.2603125 1.875 11.265625 C0 11 0 11 -2 9 C-2.25 5.5 -2.25 5.5 -2 2 C-1.34 1.34 -0.68 0.68 0 0 Z " fill="#91A079" transform="translate(806,994)"/>
<path d="M0 0 C0.66 0.33 1.32 0.66 2 1 C2.75 3.4375 2.75 3.4375 3 6 C2.34 6.66 1.68 7.32 1 8 C-0.98 6.35 -2.96 4.7 -5 3 C-3 1 -3 1 0 0 Z " fill="#C1C9B2" transform="translate(333,744)"/>
<path d="M0 0 C1 4 2 8 3 12 C1.02 10.68 -0.96 9.36 -3 8 C-2.45276317 4.62537285 -1.9451 2.91765 0 0 Z " fill="#E8EFDD" transform="translate(607,733)"/>
<path d="M0 0 C0.33 0 0.66 0 1 0 C1.33 5.61 1.66 11.22 2 17 C-1.41794232 12.44274358 -1.2800783 11.63707547 -0.6875 6.25 C-0.56761719 5.07953125 -0.44773437 3.9090625 -0.32421875 2.703125 C-0.21722656 1.81109375 -0.11023438 0.9190625 0 0 Z " fill="#E7EDE0" transform="translate(598,611)"/>
<path d="M0 0 C2.31 1.65 4.62 3.3 7 5 C6.34 5.66 5.68 6.32 5 7 C3.68 7 2.36 7 1 7 C1 6.01 1 5.02 1 4 C0.34 4 -0.32 4 -1 4 C-0.67 2.68 -0.34 1.36 0 0 Z " fill="#7B8A63" transform="translate(774,864)"/>
<path d="M0 0 C0 3.70411834 -0.75301769 5.078923 -3 8 C-6.1875 9.3125 -6.1875 9.3125 -9 10 C-8.06409496 8.8944811 -7.12620142 7.79064547 -6.1875 6.6875 C-5.66542969 6.07261719 -5.14335938 5.45773437 -4.60546875 4.82421875 C-3.12827531 3.14575321 -1.59960869 1.56117966 0 0 Z " fill="#EAF0E1" transform="translate(633,806)"/>
<path d="M0 0 C0 0.66 0 1.32 0 2 C-3.75960806 5.75960806 -6.75900345 6.58894145 -12 7 C-9.20232475 3.70861735 -4.40323273 0 0 0 Z " fill="#E7EFDE" transform="translate(544,799)"/>
<path d="M0 0 C0.33 0.66 0.66 1.32 1 2 C-0.1446875 1.9071875 -0.1446875 1.9071875 -1.3125 1.8125 C-4.04525312 1.74101915 -4.04525312 1.74101915 -5.8125 3.5 C-6.204375 3.995 -6.59625 4.49 -7 5 C-7.99 4.34 -8.98 3.68 -10 3 C-11.65549531 2.61500109 -13.3222433 2.27206865 -15 2 C-15 1.67 -15 1.34 -15 1 C-9.9752761 0.37470103 -5.07471573 -0.13012092 0 0 Z " fill="#8F9D78" transform="translate(463,795)"/>
<path d="M0 0 C-1.13499394 3.29148243 -1.99283376 3.9959869 -5.125 5.75 C-6.548125 6.36875 -6.548125 6.36875 -8 7 C-8 4 -8 4 -6.25 1.8125 C-4 0 -4 0 0 0 Z " fill="#788566" transform="translate(558,787)"/>
<path d="M0 0 C0.66 0.33 1.32 0.66 2 1 C-0.65654657 4.73884332 -2.58110387 6.64978174 -7 8 C-7.66 7.34 -8.32 6.68 -9 6 C-6.03 4.02 -3.06 2.04 0 0 Z " fill="#869470" transform="translate(529,767)"/>
<path d="M0 0 C1.32 0.33 2.64 0.66 4 1 C2.35 4.3 0.7 7.6 -1 11 C-1.33 11 -1.66 11 -2 11 C-1.85892253 9.54119891 -1.71197585 8.08296449 -1.5625 6.625 C-1.48128906 5.81289063 -1.40007812 5.00078125 -1.31640625 4.1640625 C-1 2 -1 2 0 0 Z " fill="#7D8C69" transform="translate(283,555)"/>
<path d="M0 0 C0.99 0.33 1.98 0.66 3 1 C0.69 3.97 -1.62 6.94 -4 10 C-4.66 9.01 -5.32 8.02 -6 7 C-4.02 4.69 -2.04 2.38 0 0 Z " fill="#F1F5EA" transform="translate(272,512)"/>
<path d="M0 0 C5.75 3.625 5.75 3.625 8 7 C7.67 7.66 7.34 8.32 7 9 C6.34 9 5.68 9 5 9 C4.62875 8.1028125 4.62875 8.1028125 4.25 7.1875 C2.83629988 4.71352479 1.34944617 3.56629745 -1 2 C-0.67 1.34 -0.34 0.68 0 0 Z " fill="#7D8B64" transform="translate(846,923)"/>
<path d="M0 0 C0.33 0.66 0.66 1.32 1 2 C1.598125 2.12375 2.19625 2.2475 2.8125 2.375 C5.7402315 3.21149471 7.05427807 4.70682772 9 7 C9 7.66 9 8.32 9 9 C5.05860922 7.33248852 2.2107188 4.77289351 -1 2 C-0.67 1.34 -0.34 0.68 0 0 Z " fill="#E9F0DE" transform="translate(775,862)"/>
<path d="M0 0 C3.27233819 0.87262352 5.49087971 1.47390904 7.875 3.9375 C9 6 9 6 9 9 C5.51127585 7.83709195 4.90023136 6.86032391 2.8125 3.9375 C2.28269531 3.20402344 1.75289063 2.47054687 1.20703125 1.71484375 C0.80871094 1.14894531 0.41039062 0.58304688 0 0 Z " fill="#818C6F" transform="translate(286,767)"/>
<path d="M0 0 C2.64465038 3.1254959 3.84414715 6.08788267 5 10 C3.35 9.67 1.7 9.34 0 9 C-1.125 3.375 -1.125 3.375 0 0 Z " fill="#E8ECDC" transform="translate(250,716)"/>
<path d="M0 0 C0 2 0 4 0 6 C-0.5775 6.2475 -1.155 6.495 -1.75 6.75 C-4.3002997 8.16683317 -6.01785701 9.87627537 -8 12 C-8.66 11.67 -9.32 11.34 -10 11 C-9.04882866 9.8274869 -8.08882991 8.66212985 -7.125 7.5 C-6.32449219 6.52546875 -6.32449219 6.52546875 -5.5078125 5.53125 C-5.01023437 5.0259375 -4.51265625 4.520625 -4 4 C-3.34 4 -2.68 4 -2 4 C-1.34 2.68 -0.68 1.36 0 0 Z " fill="#7E8E61" transform="translate(847,967)"/>
<path d="M0 0 C1.98 0 3.96 0 6 0 C6.33 0.99 6.66 1.98 7 3 C6.01 3.99 5.02 4.98 4 6 C2.62437146 4.71034824 1.29233607 3.37310707 0 2 C0 1.34 0 0.68 0 0 Z " fill="#7A8664" transform="translate(737,953)"/>
<path d="M0 0 C2.25 -0.25 2.25 -0.25 5 0 C7.3125 2 7.3125 2 9 4 C8.01 4.66 7.02 5.32 6 6 C3.97945196 4.35830472 1.97956942 2.69088222 0 1 C0 0.67 0 0.34 0 0 Z " fill="#EBF0E2" transform="translate(736,832)"/>
<path d="M0 0 C0 0.66 0 1.32 0 2 C-5.30764827 2.97772468 -10.63108121 3.50130596 -16 4 C-13.21530998 2.14353999 -11.7318584 1.54842185 -8.5625 0.875 C-7.41974609 0.62363281 -7.41974609 0.62363281 -6.25390625 0.3671875 C-4 0 -4 0 0 0 Z " fill="#D8E1CC" transform="translate(490,823)"/>
<path d="M0 0 C0.66 0 1.32 0 2 0 C4.08989546 5.31329355 5.6112798 9.28728072 4 15 C2.1866078 11.79989612 1.47786026 8.86716157 0.875 5.25 C0.70742188 4.26515625 0.53984375 3.2803125 0.3671875 2.265625 C0.24601563 1.51796875 0.12484375 0.7703125 0 0 Z " fill="#E9F2DF" transform="translate(628,587)"/>
<path d="M0 0 C2 2 2 2 2.125 5.625 C2.08375 6.73875 2.0425 7.8525 2 9 C1.01 9.33 0.02 9.66 -1 10 C-2.46726798 6.18510326 -1.43336419 3.70988378 0 0 Z " fill="#798961" transform="translate(242,570)"/>
<path d="M0 0 C2.6855594 2.6855594 3.06049974 5.37621328 4 9 C3.34 9.66 2.68 10.32 2 11 C-0.30694043 7.53958935 -0.62056512 5.09789669 -1 1 C-0.67 0.67 -0.34 0.34 0 0 Z " fill="#7A8967" transform="translate(620,564)"/>
<path d="M0 0 C0.66 1.32 1.32 2.64 2 4 C-0.31 5.98 -2.62 7.96 -5 10 C-5.66 9.67 -6.32 9.34 -7 9 C-4.69 6.03 -2.38 3.06 0 0 Z " fill="#E3EADC" transform="translate(303,531)"/>
<path d="M0 0 C-0.185625 0.61875 -0.37125 1.2375 -0.5625 1.875 C-1.23686176 4.04160178 -1.23686176 4.04160178 0 6 C-1.32 6 -2.64 6 -4 6 C-4 5.34 -4 4.68 -4 4 C-4.99 4.66 -5.98 5.32 -7 6 C-7.99 5.67 -8.98 5.34 -10 5 C-8.71186658 4.16121545 -7.41936744 3.32913217 -6.125 2.5 C-5.40570313 2.0359375 -4.68640625 1.571875 -3.9453125 1.09375 C-2 0 -2 0 0 0 Z " fill="#E5EADC" transform="translate(356,489)"/>
<path d="M0 0 C-0.625 1.875 -0.625 1.875 -2 4 C-5.81058817 5.73961634 -8.03483443 6.19298271 -12 5 C-10.37750059 4.16180842 -8.75191503 3.3295884 -7.125 2.5 C-6.22007812 2.0359375 -5.31515625 1.571875 -4.3828125 1.09375 C-2 0 -2 0 0 0 Z " fill="#7E8B6B" transform="translate(344,458)"/>
<path d="M0 0 C6.0546875 -0.1953125 6.0546875 -0.1953125 8 0 C8.66 0.66 9.32 1.32 10 2 C9.67 2.99 9.34 3.98 9 5 C4.545 3.02 4.545 3.02 0 1 C0 0.67 0 0.34 0 0 Z " fill="#EEF3E4" transform="translate(521,457)"/>
<path d="M0 0 C2.97 0.495 2.97 0.495 6 1 C6 1.66 6 2.32 6 3 C6.66 3.33 7.32 3.66 8 4 C6.02 4.99 6.02 4.99 4 6 C2.62437146 4.71034824 1.29233607 3.37310707 0 2 C0 1.34 0 0.68 0 0 Z " fill="#7A8662" transform="translate(719,936)"/>
<path d="M0 0 C1.32 0.33 2.64 0.66 4 1 C3.67 2.32 3.34 3.64 3 5 C3.66 5.33 4.32 5.66 5 6 C4.01 6.33 3.02 6.66 2 7 C0.68 5.35 -0.64 3.7 -2 2 C-1.34 2 -0.68 2 0 2 C0 1.34 0 0.68 0 0 Z " fill="#798864" transform="translate(692,908)"/>
<path d="M0 0 C0.33 0.99 0.66 1.98 1 3 C1.99 3.66 2.98 4.32 4 5 C3.67 5.99 3.34 6.98 3 8 C0.36 6.02 -2.28 4.04 -5 2 C-2 0 -2 0 0 0 Z " fill="#7C8969" transform="translate(685,900)"/>
<path d="M0 0 C0.66 0.33 1.32 0.66 2 1 C2 1.66 2 2.32 2 3 C3.32 3.33 4.64 3.66 6 4 C6.33 5.65 6.66 7.3 7 9 C5.68388323 8.04663979 4.37221039 7.08714226 3.0625 6.125 C2.33160156 5.59132813 1.60070312 5.05765625 0.84765625 4.5078125 C-1 3 -1 3 -2 1 C-1.34 0.67 -0.68 0.34 0 0 Z " fill="#7E8C6D" transform="translate(583,789)"/>
<path d="M0 0 C6.52307692 1.47692308 6.52307692 1.47692308 8.9375 4.125 C9.288125 4.74375 9.63875 5.3625 10 6 C4.68559972 6 3.78319167 4.52524678 0 1 C0 0.67 0 0.34 0 0 Z " fill="#E5EBDE" transform="translate(623,756)"/>
<path d="M0 0 C0.66 0 1.32 0 2 0 C3.625 3.3125 3.625 3.3125 5 7 C4.01 8.485 4.01 8.485 3 10 C0.96564469 6.27034861 0 4.33094958 0 0 Z " fill="#788962" transform="translate(281,704)"/>
<path d="M0 0 C0.33 0 0.66 0 1 0 C1.33 1.98 1.66 3.96 2 6 C2.33 6 2.66 6 3 6 C3.125 8.875 3.125 8.875 3 12 C2.34 12.66 1.68 13.32 1 14 C-0.04976964 10.85069107 -0.10131595 8.61185544 -0.0625 5.3125 C-0.05347656 4.31863281 -0.04445313 3.32476563 -0.03515625 2.30078125 C-0.02355469 1.54152344 -0.01195312 0.78226563 0 0 Z " fill="#E7EDDD" transform="translate(633,610)"/>
<path d="M0 0 C0.33 0.99 0.66 1.98 1 3 C0.34 3 -0.32 3 -1 3 C-1.33 3.99 -1.66 4.98 -2 6 C-2.99 5.67 -3.98 5.34 -5 5 C-4.34 4.67 -3.68 4.34 -3 4 C-5.475 3.01 -5.475 3.01 -8 2 C-4.91190305 0.23537317 -3.76687864 0 0 0 Z " fill="#85936B" transform="translate(472,793)"/>
<path d="M0 0 C0.33 0 0.66 0 1 0 C1.22786458 2.05078125 1.45572917 4.1015625 1.68359375 6.15234375 C1.81886614 8.01140229 1.81886614 8.01140229 3 9 C2.71269945 11.33944736 2.38063221 13.6739143 2 16 C1.67 16 1.34 16 1 16 C-0.12862175 10.63904667 -0.09688221 5.44693314 0 0 Z " fill="#778468" transform="translate(234,656)"/>
<path d="M0 0 C0.625 1.8125 0.625 1.8125 1 4 C0.01 5.485 0.01 5.485 -1 7 C-2.32 6.67 -3.64 6.34 -5 6 C-4.75 4.125 -4.75 4.125 -4 2 C-1.9375 0.75 -1.9375 0.75 0 0 Z " fill="#798C5E" transform="translate(271,590)"/>
<path d="M0 0 C0.33 0.99 0.66 1.98 1 3 C1.66 3 2.32 3 3 3 C2.67 4.98 2.34 6.96 2 9 C2.66 9.33 3.32 9.66 4 10 C3.01 11.485 3.01 11.485 2 13 C1.47044766 11.21089097 0.9516063 9.41860852 0.4375 7.625 C0.14746094 6.62726562 -0.14257812 5.62953125 -0.44140625 4.6015625 C-1 2 -1 2 0 0 Z " fill="#7E8C6B" transform="translate(588,568)"/>
<path d="M0 0 C0.66 0.33 1.32 0.66 2 1 C0.625 3.5 0.625 3.5 -1 6 C-1.66 6 -2.32 6 -3 6 C-3 6.66 -3 7.32 -3 8 C-3.66 8 -4.32 8 -5 8 C-3.375 2.25 -3.375 2.25 0 0 Z " fill="#798563" transform="translate(258,539)"/>
<path d="M0 0 C1.98 0.99 1.98 0.99 4 2 C4 2.66 4 3.32 4 4 C4.99 4.33 5.98 4.66 7 5 C6.01 5.495 6.01 5.495 5 6 C4.67 6.66 4.34 7.32 4 8 C0 3.375 0 3.375 0 0 Z " fill="#EEF5EA" transform="translate(711,931)"/>
<path d="M0 0 C0.66 0 1.32 0 2 0 C2.66 2.31 3.32 4.62 4 7 C3.01 7.66 2.02 8.32 1 9 C-0.4783226 6.04335481 -0.06032783 3.25770263 0 0 Z " fill="#F1F4E8" transform="translate(624,844)"/>
<path d="M0 0 C0.66 0.33 1.32 0.66 2 1 C-2.75 4 -2.75 4 -5 4 C-5 4.66 -5 5.32 -5 6 C-7.97 5.505 -7.97 5.505 -11 5 C-7.41161963 3.13404221 -3.77010767 1.46615298 0 0 Z " fill="#E5ECDC" transform="translate(513,814)"/>
<path d="M0 0 C1.32 0.33 2.64 0.66 4 1 C5.046875 3.06640625 5.046875 3.06640625 5.75 5.5625 C5.99234375 6.38878906 6.2346875 7.21507812 6.484375 8.06640625 C6.65453125 8.70449219 6.8246875 9.34257813 7 10 C6.01 10.495 6.01 10.495 5 11 C3.35 7.37 1.7 3.74 0 0 Z " fill="#768361" transform="translate(248,711)"/>
<path d="M0 0 C0.33 0 0.66 0 1 0 C2.125 7.75 2.125 7.75 1 10 C0.34 10 -0.32 10 -1 10 C-1.33 10.66 -1.66 11.32 -2 12 C-1 3.42857143 -1 3.42857143 0 0 Z " fill="#929B81" transform="translate(597,664)"/>
<path d="M0 0 C0.66 1.32 1.32 2.64 2 4 C0.02 6.31 -1.96 8.62 -4 11 C-4.33 10.34 -4.66 9.68 -5 9 C-4.00390625 6.8359375 -4.00390625 6.8359375 -2.5625 4.375 C-2.08941406 3.55773437 -1.61632812 2.74046875 -1.12890625 1.8984375 C-0.75636719 1.27195312 -0.38382812 0.64546875 0 0 Z " fill="#DFE1D6" transform="translate(301,552)"/>
<path d="M0 0 C0.66 2.97 1.32 5.94 2 9 C-0.66735273 6.51047079 -2.55746343 4.36591866 -4 1 C-2 0 -2 0 0 0 Z " fill="#748463" transform="translate(572,537)"/>
<path d="M0 0 C1.32 0 2.64 0 4 0 C4.33 2.31 4.66 4.62 5 7 C3.02 5.35 1.04 3.7 -1 2 C-0.67 1.34 -0.34 0.68 0 0 Z " fill="#EEF2E4" transform="translate(571,489)"/>
<path d="M0 0 C0.99 0 1.98 0 3 0 C3.33 2.31 3.66 4.62 4 7 C2.02 5.35 0.04 3.7 -2 2 C-1.34 1.34 -0.68 0.68 0 0 Z " fill="#7C8D66" transform="translate(652,871)"/>
<path d="M0 0 C0.66 0.33 1.32 0.66 2 1 C1.360625 1.103125 0.72125 1.20625 0.0625 1.3125 C-0.618125 1.539375 -1.29875 1.76625 -2 2 C-2.33 2.99 -2.66 3.98 -3 5 C-5.64 5 -8.28 5 -11 5 C-7.41161963 3.13404221 -3.77010767 1.46615298 0 0 Z " fill="#8A9778" transform="translate(489,787)"/>
<path d="M0 0 C3.465 1.98 3.465 1.98 7 4 C6.67 4.66 6.34 5.32 6 6 C3.5625 5.25 3.5625 5.25 1 4 C0.1875 1.875 0.1875 1.875 0 0 Z M1 5 C3 6 3 6 3 6 Z " fill="#7B8966" transform="translate(339,769)"/>
<path d="M0 0 C3.40320742 1.01176437 4.75725331 1.64843582 6.8125 4.625 C7.204375 5.40875 7.59625 6.1925 8 7 C7.01 7 6.02 7 5 7 C3.61328125 5.46875 3.61328125 5.46875 2.3125 3.5 C1.87550781 2.8503125 1.43851562 2.200625 0.98828125 1.53125 C0.49908203 0.77328125 0.49908203 0.77328125 0 0 Z " fill="#7C8969" transform="translate(271,750)"/>
<path d="M0 0 C4.8 3.44615385 4.8 3.44615385 5.8125 6.25 C5.874375 6.8275 5.93625 7.405 6 8 C6.66 8 7.32 8 8 8 C7.67 8.66 7.34 9.32 7 10 C4.13211375 8.94844171 3.17723991 8.36380824 1.8125 5.5625 C1.544375 4.716875 1.27625 3.87125 1 3 C0.67 2.01 0.34 1.02 0 0 Z " fill="#E3E5DB" transform="translate(515,552)"/>
<path d="M0 0 C-3.18762365 2.12508244 -5.26512223 2.5020163 -9 3 C-9.66 2.01 -10.32 1.02 -11 0 C-7.18243176 -1.37432457 -3.92744671 -0.67975039 0 0 Z " fill="#7A8B60" transform="translate(485,444)"/>
<path d="M0 0 C0.66 0 1.32 0 2 0 C2 0.66 2 1.32 2 2 C3.32 2.66 4.64 3.32 6 4 C5.01 5.485 5.01 5.485 4 7 C2.35 5.02 0.7 3.04 -1 1 C-0.67 0.67 -0.34 0.34 0 0 Z " fill="#828F6F" transform="translate(745,960)"/>
<path d="M0 0 C3.3 0.33 6.6 0.66 10 1 C10 1.66 10 2.32 10 3 C10.99 3.33 11.98 3.66 13 4 C11 5 11 5 8.3984375 4.22265625 C6.90183594 3.64837891 6.90183594 3.64837891 5.375 3.0625 C4.37210937 2.68222656 3.36921875 2.30195312 2.3359375 1.91015625 C1.56507813 1.60980469 0.79421875 1.30945313 0 1 C0 0.67 0 0.34 0 0 Z " fill="#E4EAD4" transform="translate(373,786)"/>
<path d="M0 0 C0.33 0.66 0.66 1.32 1 2 C-0.25 4.5625 -0.25 4.5625 -2 7 C-2.99 7.33 -3.98 7.66 -5 8 C-3.8141763 4.62496331 -2.72426311 2.35277269 0 0 Z " fill="#7C8767" transform="translate(548,752)"/>
<path d="M0 0 C0.99 0 1.98 0 3 0 C3 1.32 3 2.64 3 4 C3.66 4.33 4.32 4.66 5 5 C4.01 5.99 3.02 6.98 2 8 C0.74335022 5.09399739 0 3.20395416 0 0 Z " fill="#818D6B" transform="translate(241,692)"/>
<path d="M0 0 C2.31 0 4.62 0 7 0 C7.33 0.66 7.66 1.32 8 2 C3.25 5 3.25 5 1 5 C1.33 3.68 1.66 2.36 2 1 C1.34 0.67 0.68 0.34 0 0 Z " fill="#7A8765" transform="translate(345,489)"/>
<path d="M0 0 C2.97 0.495 2.97 0.495 6 1 C5.67 2.65 5.34 4.3 5 6 C3.2925002 4.71937515 1.62626404 3.38232443 0 2 C0 1.34 0 0.68 0 0 Z " fill="#788462" transform="translate(753,968)"/>
<path d="M0 0 C0.66 0.33 1.32 0.66 2 1 C2 1.66 2 2.32 2 3 C1.34 3 0.68 3 0 3 C-0.33 3.99 -0.66 4.98 -1 6 C-1.99 5.01 -2.98 4.02 -4 3 C-3 1 -3 1 0 0 Z " fill="#869276" transform="translate(619,817)"/>
<path d="M0 0 C0.66 0.33 1.32 0.66 2 1 C2 1.66 2 2.32 2 3 C3.32 3.66 4.64 4.32 6 5 C5.34 5.66 4.68 6.32 4 7 C1.375 6.625 1.375 6.625 -1 6 C-0.67 4.02 -0.34 2.04 0 0 Z " fill="#818E68" transform="translate(638,769)"/>
<path d="M0 0 C4.43090471 1.20842856 6.98112756 2.51668565 10 6 C9.01 6.33 8.02 6.66 7 7 C5.17578125 5.8203125 5.17578125 5.8203125 3.3125 4.125 C2.68988281 3.57070313 2.06726563 3.01640625 1.42578125 2.4453125 C0 1 0 1 0 0 Z " fill="#EBEFE1" transform="translate(636,767)"/>
<path d="M0 0 C0.33 0 0.66 0 1 0 C2.12029814 5.48946087 1.79217969 8.83430559 0 14 C-0.33 14 -0.66 14 -1 14 C-1.18451025 4.58997722 -1.18451025 4.58997722 0 0 Z " fill="#E8EFD9" transform="translate(268,610)"/>
<path d="M0 0 C0.66 0.66 1.32 1.32 2 2 C1.25 4.4375 1.25 4.4375 0 7 C-2.125 7.8125 -2.125 7.8125 -4 8 C-2.87548273 5.0280615 -1.77706209 2.66559313 0 0 Z " fill="#E5ECDB" transform="translate(293,544)"/>
<path d="M0 0 C1 2 2 4 3 6 C2.01 7.485 2.01 7.485 1 9 C0.01 6.69 -0.98 4.38 -2 2 C-1.34 2 -0.68 2 0 2 C0 1.34 0 0.68 0 0 Z " fill="#E6EBD9" transform="translate(612,539)"/>
<path d="M0 0 C1.65 0 3.3 0 5 0 C5.33 1.98 5.66 3.96 6 6 C3.97945196 4.35830472 1.97956942 2.69088222 0 1 C0 0.67 0 0.34 0 0 Z " fill="#839172" transform="translate(762,978)"/>
<path d="M0 0 C2.35171131 0.59861742 4.6859378 1.26924352 7 2 C7.33 2.66 7.66 3.32 8 4 C5.36 4 2.72 4 0 4 C0 2.68 0 1.36 0 0 Z " fill="#8F9C7D" transform="translate(350,776)"/>
<path d="M0 0 C2.35448165 2.55068845 2.98327924 3.71017358 3.1875 7.25 C3.125625 8.1575 3.06375 9.065 3 10 C1.10786631 7.61426621 -0.02391783 5.92824652 -1 3 C-0.67 2.01 -0.34 1.02 0 0 Z " fill="#7A8768" transform="translate(579,550)"/>
<path d="M0 0 C0.33 1.32 0.66 2.64 1 4 C-0.65 5.32 -2.3 6.64 -4 8 C-4.66 7.67 -5.32 7.34 -6 7 C-4.02 4.69 -2.04 2.38 0 0 Z " fill="#DDE5D4" transform="translate(310,523)"/>
<path d="M0 0 C0 3 0 3 -1 5 C-1.66 5 -2.32 5 -3 5 C-3.33 5.66 -3.66 6.32 -4 7 C-4.66 6.34 -5.32 5.68 -6 5 C-4.02 3.35 -2.04 1.7 0 0 Z " fill="#879475" transform="translate(300,486)"/>
<path d="M0 0 C2.1875 0.3125 2.1875 0.3125 4 1 C2.68 2.32 1.36 3.64 0 5 C-0.99 4.34 -1.98 3.68 -3 3 C-1.75 1.4375 -1.75 1.4375 0 0 Z " fill="#828F6F" transform="translate(304,482)"/>
<path d="M0 0 C0.78375 0.04125 1.5675 0.0825 2.375 0.125 C2.375 1.115 2.375 2.105 2.375 3.125 C0.065 2.795 -2.245 2.465 -4.625 2.125 C-2.625 0.125 -2.625 0.125 0 0 Z " fill="#7C8B66" transform="translate(503.625,449.875)"/>
<path d="M0 0 C-0.66 0 -1.32 0 -2 0 C-2 0.66 -2 1.32 -2 2 C-4.64 2.33 -7.28 2.66 -10 3 C-9 1 -9 1 -6.6875 -0.1875 C-3.88010429 -1.03624754 -2.698065 -0.99928333 0 0 Z " fill="#8B9777" transform="translate(366,450)"/>
<path d="M0 0 C2.5 1.3125 2.5 1.3125 5 3 C5 3.99 5 4.98 5 6 C4.34 6 3.68 6 3 6 C3 5.34 3 4.68 3 4 C1.68 3.67 0.36 3.34 -1 3 C-0.67 2.01 -0.34 1.02 0 0 Z " fill="#81906D" transform="translate(764,856)"/>
<path d="M0 0 C1.98 0 3.96 0 6 0 C6.33 0.99 6.66 1.98 7 3 C4.36 3 1.72 3 -1 3 C-0.67 2.01 -0.34 1.02 0 0 Z " fill="#6B7A51" transform="translate(413,826)"/>
<path d="M0 0 C0.99 0.66 1.98 1.32 3 2 C0.69 3.32 -1.62 4.64 -4 6 C-3.6875 4.125 -3.6875 4.125 -3 2 C-2.01 1.34 -1.02 0.68 0 0 Z " fill="#7B8869" transform="translate(547,793)"/>
<path d="M0 0 C2.97 1.98 2.97 1.98 6 4 C5.34 4.66 4.68 5.32 4 6 C2.35 4.35 0.7 2.7 -1 1 C-0.67 0.67 -0.34 0.34 0 0 Z " fill="#7A8765" transform="translate(610,746)"/>
<path d="M0 0 C2.375 0.25 2.375 0.25 5 1 C6.3125 3.0625 6.3125 3.0625 7 5 C6.01 5 5.02 5 4 5 C1.8125 2.5 1.8125 2.5 0 0 Z " fill="#E1E7D7" transform="translate(312,746)"/>
<path d="M0 0 C1.125 1.5625 1.125 1.5625 2 4 C1.125 7.75 1.125 7.75 0 11 C-0.33 11 -0.66 11 -1 11 C-1.125 3.375 -1.125 3.375 0 0 Z " fill="#8B977B" transform="translate(600,645)"/>
<path d="M0 0 C0.66 0 1.32 0 2 0 C1.01 3.3 0.02 6.6 -1 10 C-1.33 10 -1.66 10 -2 10 C-2.17942163 6.05272412 -2.09350689 3.4019487 0 0 Z " fill="#879674" transform="translate(274,579)"/>
<path d="M0 0 C0.33 0 0.66 0 1 0 C1 1.98 1 3.96 1 6 C-0.32 6.33 -1.64 6.66 -3 7 C-1.125 1.125 -1.125 1.125 0 0 Z " fill="#E1E3D8" transform="translate(295,563)"/>
<path d="M0 0 C1.65 1.65 3.3 3.3 5 5 C4.01 5.66 3.02 6.32 2 7 C0 4 0 4 0 0 Z " fill="#818D6A" transform="translate(593,516)"/>
<path d="M0 0 C1.65 0 3.3 0 5 0 C6.0625 2.375 6.0625 2.375 7 5 C6.67 5.66 6.34 6.32 6 7 C1.125 2.25 1.125 2.25 0 0 Z " fill="#81906F" transform="translate(545,513)"/>
<path d="M0 0 C1.65 0 3.3 0 5 0 C5.99 1.98 6.98 3.96 8 6 C7.34 6 6.68 6 6 6 C6 5.34 6 4.68 6 4 C5.195625 3.71125 4.39125 3.4225 3.5625 3.125 C1 2 1 2 0 0 Z " fill="#899575" transform="translate(530,501)"/>
<path d="M0 0 C0 0.66 0 1.32 0 2 C-1.8125 2.6875 -1.8125 2.6875 -4 3 C-5.75 1.5625 -5.75 1.5625 -7 0 C-4.3333581 -1.33332095 -2.83319697 -0.67102033 0 0 Z " fill="#788862" transform="translate(525,459)"/>
<path d="M0 0 C0 0.33 0 0.66 0 1 C-5.16044765 2.512545 -8.65998179 3.33500455 -14 2 C-14 1.67 -14 1.34 -14 1 C-9.23692563 0.04738513 -4.8333472 -0.08333357 0 0 Z " fill="#959F86" transform="translate(416,438)"/>
</svg>
